<svg xmlns="http://www.w3.org/2000/svg" version="1.1" xmlns:xlink="http://www.w3.org/1999/xlink" xmlns:svgjs="http://svgjs.dev/svgjs" viewBox="0 0 800 800" opacity="1"><defs><linearGradient x1="50%" y1="0%" x2="50%" y2="100%" id="ggglitch-grad"><stop stop-color="hsla(160, 100%, 70%, 1.00)" stop-opacity="1" offset="45%"></stop><stop stop-color="hsla(254, 91%, 82%, 1.00)" stop-opacity="1" offset="100%"></stop></linearGradient><clipPath id="SvgjsClipPath1790"><rect width="61.53846153846154" height="800" x="0" y="0"></rect><rect width="61.53846153846154" height="800" x="123.07692307692308" y="0"></rect><rect width="61.53846153846154" height="800" x="246.15384615384616" y="0"></rect><rect width="61.53846153846154" height="800" x="369.2307692307692" y="0"></rect><rect width="61.53846153846154" height="800" x="492.3076923076923" y="0"></rect><rect width="61.53846153846154" height="800" x="615.3846153846154" y="0"></rect><rect width="61.53846153846154" height="800" x="738.4615384615385" y="0"></rect><rect width="61.53846153846154" height="800" x="861.5384615384615" y="0"></rect><rect width="61.53846153846154" height="800" x="984.6153846153846" y="0"></rect><rect width="61.53846153846154" height="800" x="1107.6923076923076" y="0"></rect><rect width="61.53846153846154" height="800" x="1230.7692307692307" y="0"></rect><rect width="61.53846153846154" height="800" x="1353.8461538461538" y="0"></rect><rect width="61.53846153846154" height="800" x="1476.923076923077" y="0"></rect><rect width="61.53846153846154" height="800" x="1600" y="0"></rect></clipPath><clipPath id="SvgjsClipPath1791"><rect width="61.53846153846154" height="800" x="61.53846153846154" y="0"></rect><rect width="61.53846153846154" height="800" x="184.6153846153846" y="0"></rect><rect width="61.53846153846154" height="800" x="307.6923076923077" y="0"></rect><rect width="61.53846153846154" height="800" x="430.7692307692308" y="0"></rect><rect width="61.53846153846154" height="800" x="553.8461538461538" y="0"></rect><rect width="61.53846153846154" height="800" x="676.9230769230769" y="0"></rect><rect width="61.53846153846154" height="800" x="800" y="0"></rect><rect width="61.53846153846154" height="800" x="923.0769230769231" y="0"></rect><rect width="61.53846153846154" height="800" x="1046.1538461538462" y="0"></rect><rect width="61.53846153846154" height="800" x="1169.2307692307693" y="0"></rect><rect width="61.53846153846154" height="800" x="1292.3076923076924" y="0"></rect><rect width="61.53846153846154" height="800" x="1415.3846153846155" y="0"></rect><rect width="61.53846153846154" height="800" x="1538.4615384615386" y="0"></rect></clipPath></defs><g stroke-width="41" stroke="url(#ggglitch-grad)" fill="none"><polygon points="-20.5,20.5 20.5,-20.5 820.5,779.5 779.5,820.5" stroke="none" fill="url(#ggglitch-grad)" clip-path="url(&quot;#SvgjsClipPath1790&quot;)" opacity="0.63" transform="translate(0 -600)"></polygon><polygon points="-20.5,20.5 20.5,-20.5 820.5,779.5 779.5,820.5" stroke="none" fill="url(#ggglitch-grad)" clip-path="url(&quot;#SvgjsClipPath1791&quot;)" transform="translate(0 -694)"></polygon><polygon points="-20.5,20.5 20.5,-20.5 820.5,779.5 779.5,820.5" stroke="none" fill="url(#ggglitch-grad)" clip-path="url(&quot;#SvgjsClipPath1790&quot;)" opacity="0.63" transform="translate(0 -480)"></polygon><polygon points="-20.5,20.5 20.5,-20.5 820.5,779.5 779.5,820.5" stroke="none" fill="url(#ggglitch-grad)" clip-path="url(&quot;#SvgjsClipPath1791&quot;)" transform="translate(0 -574)"></polygon><polygon points="-20.5,20.5 20.5,-20.5 820.5,779.5 779.5,820.5" stroke="none" fill="url(#ggglitch-grad)" clip-path="url(&quot;#SvgjsClipPath1790&quot;)" opacity="0.63" transform="translate(0 -360)"></polygon><polygon points="-20.5,20.5 20.5,-20.5 820.5,779.5 779.5,820.5" stroke="none" fill="url(#ggglitch-grad)" clip-path="url(&quot;#SvgjsClipPath1791&quot;)" transform="translate(0 -454)"></polygon><polygon points="-20.5,20.5 20.5,-20.5 820.5,779.5 779.5,820.5" stroke="none" fill="url(#ggglitch-grad)" clip-path="url(&quot;#SvgjsClipPath1790&quot;)" opacity="0.63" transform="translate(0 -240)"></polygon><polygon points="-20.5,20.5 20.5,-20.5 820.5,779.5 779.5,820.5" stroke="none" fill="url(#ggglitch-grad)" clip-path="url(&quot;#SvgjsClipPath1791&quot;)" transform="translate(0 -334)"></polygon></g></svg>