<?xml version="1.0" encoding="iso-8859-1"?>
<!-- Uploaded to: SVG Repo, www.svgrepo.com, Generator: SVG Repo Mixer Tools -->
<svg height="800px" width="800px" version="1.1" id="Layer_1" xmlns="http://www.w3.org/2000/svg" xmlns:xlink="http://www.w3.org/1999/xlink" 
	 viewBox="0 0 512 512" xml:space="preserve">
<path style="fill:#FF738E;" d="M492.233,155.544c17.147-30.07,6.967-75.77-26.52-109.257
	c-33.269-33.269-78.591-43.534-108.668-26.852c-14.044,7.789-64.066,134.908-64.066,134.908l16.361,48.317l49.09,15.588
	C358.43,218.247,484.222,169.594,492.233,155.544z"/>
<polygon style="fill:#3D7A94;" points="358.43,218.247 293.753,153.569 214.951,237.298 274.702,297.049 "/>
<path style="fill:#0E4675;" d="M214.951,237.298L20.603,443.795C8.29,456.88,8.611,477.98,21.316,490.685
	c12.704,12.704,33.805,13.025,46.89,0.712L274.702,297.05L214.951,237.298z"/>
<path style="fill:#000030;" d="M509.233,99.527c-5.223-22.056-17.77-43.873-35.33-61.431c-17.689-17.69-38.785-29.871-61.007-35.228
	c-22.414-5.404-44.245-3.117-61.47,6.436c-4.568,2.535-12.212,6.774-42.301,75.882c-12.147,27.9-23.15,55.404-26.133,62.917
	l-68.297,72.566c-4.54-4.273-11.687-4.19-16.128,0.248c-4.524,4.524-4.524,11.859,0,16.384l0.246,0.244L12.168,435.855
	c-16.591,17.631-16.161,45.902,0.958,63.02c8.736,8.736,20.373,13.124,32.021,13.124c11.177,0,22.365-4.043,30.998-12.167
	l198.313-186.645l0.243,0.244c4.524,4.522,11.859,4.522,16.384,0c4.439-4.44,4.521-11.587,0.248-16.126l73.398-69.081
	c7.634-2.981,34.693-13.631,62.164-25.415c68.47-29.371,72.81-36.981,75.402-41.527C512.121,144.053,514.585,122.121,509.233,99.527
	z M60.267,482.959c-8.46,7.963-22.545,7.748-30.76-0.467c-8.214-8.213-8.428-22.3-0.468-30.759l186.163-197.801l42.864,42.864
	L60.267,482.959z M274.946,280.911l-43.857-43.857l62.917-66.849l12.983,12.983c0.08,0.082,0.162,0.166,0.246,0.246l21.361,21.36
	c0.064,0.066,0.127,0.13,0.192,0.192l13.009,13.009L274.946,280.911z M482.471,149.27c-8.214,8.256-67.564,34.432-121.196,55.438
	l-6.792-6.792l68.527-51.664c5.109-3.852,6.128-11.116,2.276-16.225c-3.851-5.105-11.114-6.126-16.224-2.276l-71.122,53.621
	l-7.314-7.314l53.62-71.121c3.852-5.109,2.832-12.373-2.276-16.225c-5.109-3.851-12.373-2.831-16.224,2.276l-51.664,68.526
	l-7.09-7.09c21.48-53.828,47.953-112.936,56.247-121.176c26.077-13.989,65.598-3.454,94.282,25.228
	C486.478,83.433,496.899,123.178,482.471,149.27z"/>
</svg>