<?xml version="1.0" encoding="iso-8859-1"?>
<!-- Uploaded to: SVG Repo, www.svgrepo.com, Generator: SVG Repo Mixer Tools -->
<svg version="1.1" id="Layer_1" xmlns="http://www.w3.org/2000/svg" xmlns:xlink="http://www.w3.org/1999/xlink" 
	 viewBox="0 0 512 512" xml:space="preserve">
<g>
	<path style="fill:#ECEBED;" d="M501.552,243.487v12.521H411.7v-12.521c0-7.292,5.907-13.201,13.198-13.201h63.457
		C495.641,230.286,501.552,236.195,501.552,243.487L501.552,243.487z"/>
	<path style="fill:#ECEBED;" d="M425.375,347.646h76.177v16.074c0,7.292-5.911,13.2-13.198,13.2h-63.457
		c-7.291,0-13.198-5.909-13.198-13.2v-16.074H425.375z"/>
</g>
<g>
	<rect x="411.701" y="256.006" style="fill:#27B5F7;" width="89.852" height="91.639"/>
	<path style="fill:#27B5F7;" d="M257.932,235.422v160.273H10.499V235.422c0-7.803,6.039-14.13,13.487-14.13h220.458
		C251.893,221.292,257.932,227.619,257.932,235.422L257.932,235.422z"/>
</g>
<path style="fill:#FEBBA0;" d="M213.864,319.126v20.353c0,6.799-4.088,12.932-10.365,15.549l-67.241,28.016
	c-14.206,5.92-23.459,22.008-23.459,37.397v81.092h286.352v-81.092c0-15.389-9.254-31.479-23.459-37.397l-67.241-28.016
	c-6.277-2.615-10.365-8.749-10.365-15.549v-20.353H213.864z"/>
<path style="fill:#89CD37;" d="M375.692,383.044l-67.241-28.016c-5.658-2.357-9.526-7.576-10.237-13.561v12.816
	c0,23.239-19.014,42.255-42.255,42.255l0,0c-23.239,0-42.254-19.014-42.254-42.255v-12.557c-0.79,5.877-4.632,10.978-10.208,13.301
	l-67.241,28.016c-14.206,5.92-23.459,22.008-23.459,37.397v81.092h286.352v-81.092C399.151,405.053,389.896,388.963,375.692,383.044
	z"/>
<path style="fill:#FEBBA0;" d="M350.006,199.171v-30.443c0-51.831-42.017-93.848-93.848-93.848
	c-51.831,0-93.848,42.017-93.848,93.848h-0.368v30.443c-12.925,0-23.403,10.478-23.403,23.403c0,12.925,10.478,23.403,23.403,23.403
	v17.472c1.126,14.735,8.311,27.853,19.192,35.038l56.575,32.343c11.36,7.503,25.173,7.503,36.533,0l56.405-32.343
	c10.879-7.185,18.233-20.303,19.36-35.038v-17.472c12.925,0,23.403-10.478,23.403-23.403
	C373.409,209.648,362.931,199.171,350.006,199.171z"/>
<path style="fill:#703E41;" d="M345.538,69.976c-17.704-22.56-36.427-27.376-50.329-20.61c-11.022-9.42-27.536-18.827-55.116-18.827
	c-62.297,0-96.385,47.794-96.385,90.274c0,45.334,18.236,74.222,18.236,74.222s6.794-47.684,53.474-47.684
	c31.206,0,50.01-12.389,63.133-27.592c5.577,14.531,32.583,20.632,43.191,30.01c20.997,18.557,28.249,33.081,28.249,33.081
	S383.08,117.806,345.538,69.976z"/>
<path d="M113.566,270.634h-0.137c-5.77,0-10.448-4.678-10.448-10.448c0-5.77,4.678-10.448,10.448-10.448h0.137
	c5.77,0,10.448,4.678,10.448,10.448C124.014,265.956,119.336,270.634,113.566,270.634z"/>
<path d="M79.628,270.634H49.816c-5.77,0-10.448-4.678-10.448-10.448c0-5.77,4.678-10.448,10.448-10.448h29.812
	c5.77,0,10.448,4.678,10.448,10.448C90.076,265.956,85.398,270.634,79.628,270.634z"/>
<path d="M134.215,331.58H49.816c-5.77,0-10.448-4.678-10.448-10.448c0-5.77,4.678-10.448,10.448-10.448h84.399
	c5.77,0,10.448,4.678,10.448,10.448C144.663,326.902,139.986,331.58,134.215,331.58z"/>
<path d="M113.566,301.106h-0.137c-5.77,0-10.448-4.678-10.448-10.448c0-5.77,4.678-10.448,10.448-10.448h0.137
	c5.77,0,10.448,4.678,10.448,10.448C124.014,296.429,119.336,301.106,113.566,301.106z"/>
<path d="M79.628,301.107H49.816c-5.77,0-10.448-4.678-10.448-10.448c0-5.77,4.678-10.448,10.448-10.448h29.812
	c5.77,0,10.448,4.678,10.448,10.448C90.076,296.43,85.398,301.107,79.628,301.107z"/>
<path d="M144.823,301.107h-0.976c-5.77,0-10.448-4.678-10.448-10.448c0-5.77,4.678-10.448,10.448-10.448h0.976
	c5.77,0,10.448,4.678,10.448,10.448C155.271,296.43,150.593,301.107,144.823,301.107z"/>
<path d="M10.585,511.981h-0.137C4.678,511.981,0,507.304,0,501.533c0-5.77,4.678-10.448,10.448-10.448h0.137
	c5.77,0,10.448,4.678,10.448,10.448C21.033,507.304,16.355,511.981,10.585,511.981z"/>
<path d="M501.501,511.981h-0.137c-5.77,0-10.448-4.678-10.448-10.448c0-5.77,4.678-10.448,10.448-10.448h0.137
	c5.77,0,10.448,4.678,10.448,10.448C511.949,507.304,507.271,511.981,501.501,511.981z"/>
<path d="M294.077,235.482c-6.44,0-11.679-5.239-11.679-11.678c0-6.44,5.239-11.679,11.679-11.679c6.44,0,11.679,5.239,11.679,11.679
	C305.756,230.243,300.517,235.482,294.077,235.482z"/>
<path d="M217.872,235.482c-6.44,0-11.679-5.239-11.679-11.678c0-6.44,5.239-11.679,11.679-11.679s11.679,5.239,11.679,11.679
	C229.549,230.243,224.311,235.482,217.872,235.482z"/>
<path d="M256.018,292.456c-11.39,0-20.658-9.267-20.658-20.658c0-5.77,4.678-10.448,10.448-10.448h20.419
	c5.77,0,10.448,4.678,10.448,10.448C276.675,283.19,267.409,292.456,256.018,292.456z"/>
<path d="M222.92,479.118c-2.674,0-5.348-1.02-7.388-3.06l-23.465-23.465c-4.08-4.08-4.08-10.696,0-14.777l23.465-23.465
	c4.08-4.08,10.696-4.08,14.777,0c4.081,4.08,4.08,10.696,0,14.777l-16.078,16.077l16.078,16.077c4.08,4.08,4.08,10.696,0,14.777
	C228.269,478.099,225.594,479.118,222.92,479.118z"/>
<path d="M288.73,479.118c-2.674,0-5.348-1.02-7.388-3.06c-4.08-4.08-4.08-10.696,0-14.777l16.078-16.077l-16.078-16.077
	c-4.08-4.08-4.08-10.696,0-14.777c4.08-4.08,10.696-4.08,14.777,0l23.465,23.465c4.08,4.08,4.08,10.696,0,14.777l-23.465,23.465
	C294.078,478.099,291.403,479.118,288.73,479.118z"/>
<path d="M251.83,479.12c-0.628,0-1.263-0.057-1.903-0.174c-5.675-1.045-9.428-6.491-8.384-12.167l8.681-47.169
	c1.045-5.674,6.487-9.428,12.167-8.384c5.675,1.045,9.428,6.491,8.384,12.167l-8.681,47.169
	C261.166,475.596,256.773,479.12,251.83,479.12z"/>
<path d="M81.704,148.015c-17.379,0-31.518-14.139-31.518-31.518V95.95c0-17.379,14.139-31.518,31.518-31.518
	s31.518,14.139,31.518,31.518v20.548C113.222,133.877,99.083,148.015,81.704,148.015z M81.704,85.327
	c-5.857,0-10.622,4.765-10.622,10.622v20.548c0,5.857,4.765,10.622,10.622,10.622c5.857,0,10.622-4.765,10.622-10.622V95.95
	C92.326,90.093,87.561,85.327,81.704,85.327z"/>
<path d="M31.728,148.015c-5.77,0-10.448-4.678-10.448-10.448v-37.463l-3.393,3.393c-4.08,4.079-10.696,4.079-14.777,0
	c-4.08-4.08-4.08-10.696,0-14.777L24.34,67.492c2.987-2.987,7.482-3.881,11.386-2.264c3.904,1.617,6.45,5.427,6.45,9.653v62.688
	C42.176,143.337,37.499,148.015,31.728,148.015z"/>
<path d="M430.854,83.602c-17.379,0-31.518-14.139-31.518-31.518V31.537c0-17.379,14.139-31.518,31.518-31.518
	c17.379,0,31.518,14.139,31.518,31.518v20.548C462.372,69.463,448.233,83.602,430.854,83.602z M430.854,20.915
	c-5.857,0-10.622,4.765-10.622,10.622v20.548c0,5.857,4.765,10.622,10.622,10.622c5.857,0,10.622-4.765,10.622-10.622V31.537
	C441.476,25.68,436.711,20.915,430.854,20.915z"/>
<path d="M501.552,83.602c-5.77,0-10.448-4.678-10.448-10.448V35.69l-3.393,3.395c-4.08,4.079-10.696,4.079-14.777,0
	c-4.08-4.08-4.08-10.696,0-14.777l21.229-21.229c2.988-2.987,7.481-3.882,11.386-2.264c3.904,1.617,6.45,5.427,6.45,9.653v62.688
	C512,78.925,507.322,83.602,501.552,83.602z"/>
<path d="M488.354,219.838h-63.457c-13.038,0-23.646,10.609-23.646,23.648V363.72c0,13.039,10.608,23.648,23.646,23.648h63.457
	c13.038,0,23.646-10.609,23.646-23.648V243.486C512,230.447,501.392,219.838,488.354,219.838z M422.148,266.455h68.956v70.743
	h-68.956V266.455z M422.148,243.486c0-1.518,1.234-2.752,2.75-2.752h63.457c1.516,0,2.75,1.235,2.75,2.752v2.073h-68.956
	L422.148,243.486L422.148,243.486z M491.104,363.72c0,1.518-1.234,2.752-2.75,2.752h-63.457c-1.516,0-2.75-1.235-2.75-2.752v-5.626
	h68.956L491.104,363.72L491.104,363.72z"/>
<path d="M467.563,491.085h-57.964v-70.644c0-20.365-12.291-39.709-29.888-47.042l-67.241-28.016
	c-2.081-0.867-3.52-2.737-3.857-4.916c-0.004-0.05-0.01-0.1-0.016-0.15c-0.037-0.276-0.063-0.554-0.063-0.838v-16.27l27.31-15.659
	c0.19-0.109,0.377-0.225,0.561-0.346c13.674-9.03,22.654-25.091,24.02-42.961c0.021-0.264,0.03-0.531,0.03-0.796v-8.674
	c13.568-4.413,23.402-17.181,23.402-32.202s-9.836-27.786-23.403-32.201v-5.185c5.962-12.971,30.71-74.005-6.696-121.661
	c-17.285-22.027-38.017-31.388-56.688-26.029c-15.794-11.703-34.499-17.405-56.975-17.405c-66.872,0-106.833,51.212-106.833,100.722
	c0,33.246,9.204,58.21,15.085,70.772c-8.354,3.684-14.939,10.651-18.131,19.258H23.986c-13.198,0-23.935,11.026-23.935,24.578
	v160.273c0,5.77,4.678,10.448,10.448,10.448H69.4v21.209h-7.706c-5.77,0-10.448,4.678-10.448,10.448
	c0,5.77,4.678,10.448,10.448,10.448h40.657v42.837H44.386c-5.77,0-10.448,4.678-10.448,10.448c0,5.77,4.678,10.448,10.448,10.448
	h423.177c5.77,0,10.448-4.678,10.448-10.448C478.011,495.762,473.333,491.085,467.563,491.085z M362.96,222.573
	c0,7.143-5.812,12.954-12.954,12.954c-5.77,0-10.448,4.678-10.448,10.448v17.05c-0.949,11.049-6.442,21.174-14.419,26.574
	l-56.094,32.165c-0.191,0.11-0.377,0.225-0.561,0.346c-7.831,5.173-17.184,5.174-25.018,0c-0.187-0.124-0.377-0.241-0.573-0.352
	l-56.258-32.161c-7.984-5.406-13.284-15.292-14.245-26.569v-17.052c0-5.77-4.678-10.448-10.448-10.448
	c-7.143,0-12.954-5.812-12.954-12.954c0-6.42,4.699-11.75,10.837-12.766l11.569,5.851c-0.669,3.022-1.033,6.156-1.033,9.376
	c0,23.901,19.445,43.345,43.345,43.345c20.591,0,37.863-14.437,42.255-33.719c4.391,19.281,21.663,33.719,42.255,33.719
	c23.901,0,43.345-19.445,43.345-43.345c0-3.174-0.352-6.267-1.003-9.249l11.603-5.973
	C358.279,210.843,362.96,216.166,362.96,222.573z M287.638,335.192v19.092c0,17.538-14.14,31.806-31.678,31.806
	s-31.648-14.268-31.648-31.806v-19.078l7.938,4.539c7.333,4.763,15.529,7.144,23.725,7.144c8.198,0,16.396-2.383,23.73-7.148
	L287.638,335.192z M298.214,181.69c-20.591,0-37.863,14.437-42.255,33.718c-4.391-19.281-21.663-33.718-42.255-33.718
	c-13.198,0-25.028,5.935-32.985,15.27l-7.698-3.893c2.416-9.563,11.754-35.265,42.396-35.265c25.023,0,45.467-7.259,62.134-22.129
	c6.466,5.771,14.972,9.914,22.819,13.736c5.68,2.766,11.551,5.626,14.453,8.19c14.735,13.022,22.154,23.859,24.734,28.054v7.146
	l-8.274,4.26C323.327,187.667,311.458,181.69,298.214,181.69z M320.664,225.034c0,12.379-10.071,22.449-22.449,22.449
	c-12.379,0-22.449-10.071-22.449-22.449s10.071-22.448,22.449-22.448C310.593,202.585,320.664,212.656,320.664,225.034z
	 M236.155,225.034c0,12.379-10.071,22.449-22.449,22.449c-12.379,0-22.449-10.071-22.449-22.449s10.071-22.448,22.449-22.448
	C226.084,202.585,236.155,212.656,236.155,225.034z M240.095,40.987c26.2,0,40.129,9.315,48.327,16.322
	c3.16,2.702,7.622,3.27,11.361,1.452c10.726-5.221,24.76,1.382,37.537,17.664l0,0c21.947,27.961,16.227,63.633,9.906,84.443
	c-4.608-5.502-10.702-11.98-18.564-18.927c-5.032-4.448-11.885-7.786-19.141-11.319c-8.555-4.167-19.2-9.352-21.217-14.605
	c-1.316-3.43-4.338-5.917-7.957-6.549c-3.621-0.633-7.305,0.683-9.706,3.466c-14.117,16.354-31.666,23.971-55.224,23.971
	c-28.871,0-44.797,15.611-53.073,28.709c-0.367,0.58-0.72,1.159-1.064,1.737c-3.725-11.666-7.124-27.524-7.124-46.536
	C154.157,81.575,186.301,40.987,240.095,40.987z M102.35,420.442v6.911H90.296v-21.209h14.079
	C103.062,410.751,102.35,415.566,102.35,420.442z M115.836,385.248H20.947V235.422c0-1.996,1.392-3.682,3.039-3.682H129.38
	c3.066,10.874,11.419,19.555,22.115,23.035v8.674c0,0.265,0.01,0.532,0.03,0.796c1.372,17.943,10.288,34.003,23.852,42.961
	c0.187,0.123,0.378,0.24,0.573,0.352l27.467,15.702v16.219c0,2.59-1.545,4.907-3.936,5.904l-67.242,28.017
	C125.998,376,120.43,380.117,115.836,385.248z M388.703,491.085H123.246v-70.644c0-11.776,7.321-23.707,17.029-27.753l64.288-26.786
	c5.308,23.486,26.329,41.083,51.395,41.083c25.071,0,46.094-17.603,51.398-41.094l64.315,26.798
	c9.708,4.045,17.029,15.976,17.029,27.753v70.643H388.703z"/>
</svg>