<?xml version="1.0" encoding="iso-8859-1"?>
<!-- Uploaded to: SVG Repo, www.svgrepo.com, Generator: SVG Repo Mixer Tools -->
<svg height="800px" width="800px" version="1.1" id="Layer_1" xmlns="http://www.w3.org/2000/svg" xmlns:xlink="http://www.w3.org/1999/xlink" 
	 viewBox="0 0 512 512" xml:space="preserve">
<path style="fill:#FCB5B5;" d="M359.149,83.877l-206.296,0.001c-30.93,28.064-50.368,68.564-50.368,113.594V500.31h307.03V197.472
	C409.515,152.442,390.079,111.941,359.149,83.877z"/>
<path style="fill:#F9545B;" d="M256.001,11.689c-56.928,0-103.148,25.132-103.148,82.037v141.957
	c0,24.758,8.744,47.494,23.321,65.286l159.679,0.025c14.565-17.791,23.297-40.539,23.297-65.309V93.726
	C359.149,36.822,313.057,11.689,256.001,11.689z"/>
<path style="fill:#FC7576;" d="M335.852,300.993c-18.902,23.087-47.623,37.839-79.851,37.839c-32.158,0-60.902-14.752-79.828-37.862
	c18.843-23.402,47.448-38.458,79.828-38.458C288.392,262.511,317.008,277.579,335.852,300.993z"/>
<path style="fill:#000030;" d="M369.62,77.658C362.107,29.338,320.016,0,256.002,0c-64.015,0-106.107,29.338-113.621,77.658
	c-32.824,31.109-51.586,74.567-51.586,119.814V500.31c0,6.456,5.233,11.689,11.689,11.689c6.456,0,11.689-5.233,11.689-11.689
	V197.472c0-30.007,9.617-59.101,26.989-83.099v121.317c0,27.28,9.568,52.363,25.516,72.084c0.252,0.352,0.527,0.69,0.823,1.016
	c21.081,25.476,52.927,41.735,88.5,41.735c35.317,0,66.956-16.03,88.038-41.191c0.61-0.597,1.139-1.251,1.591-1.943
	c15.762-19.663,25.206-44.599,25.206-71.701V114.372c17.372,23.999,26.989,53.093,26.989,83.099V500.31
	c0,6.456,5.233,11.689,11.69,11.689s11.689-5.233,11.689-11.689V197.472C421.206,152.225,402.444,108.768,369.62,77.658z
	 M164.542,93.731c0-63.497,63.96-70.352,91.46-70.352c27.498,0,91.457,6.855,91.457,70.352v141.958
	c0,17.053-4.705,33.023-12.865,46.703c-21.172-20.217-49.082-31.573-78.592-31.573c-29.508,0-57.421,11.356-78.593,31.574
	c-8.16-13.68-12.865-29.65-12.865-46.704V93.731H164.542z M191.937,300.879c17.033-17.062,39.885-26.681,64.064-26.681
	c24.181,0,47.032,9.619,64.063,26.681c-16.514,16.231-39.134,26.267-64.063,26.267C231.073,327.146,208.452,317.109,191.937,300.879
	z"/>
</svg>