<?xml version="1.0" encoding="iso-8859-1"?>
<!-- Uploaded to: SVG Repo, www.svgrepo.com, Generator: SVG Repo Mixer Tools -->
<svg height="800px" width="800px" version="1.1" id="Layer_1" xmlns="http://www.w3.org/2000/svg" xmlns:xlink="http://www.w3.org/1999/xlink" 
	 viewBox="0 0 504 504" xml:space="preserve">
<circle style="fill:#84DBFF;" cx="252" cy="252" r="252"/>
<path style="fill:#324A5E;" d="M437.9,264H66.2c-6.6,0-12-5.4-12-12l0,0c0-6.6,5.4-12,12-12h371.7c6.6,0,12,5.4,12,12l0,0
	C449.9,258.6,444.5,264,437.9,264z"/>
<path style="fill:#FFFFFF;" d="M357,339.9L357,339.9c-14.5,0-26.3-11.8-26.3-26.3V190.4c0-14.5,11.8-26.3,26.3-26.3l0,0
	c14.5,0,26.3,11.8,26.3,26.3v123.2C383.3,328.1,371.5,339.9,357,339.9z"/>
<path style="fill:#E6E9EE;" d="M409.6,315.5L409.6,315.5c-14.5,0-26.3-11.8-26.3-26.3v-74.4c0-14.5,11.8-26.3,26.3-26.3l0,0
	c14.5,0,26.3,11.8,26.3,26.3v74.4C435.9,303.7,424.1,315.5,409.6,315.5z"/>
<path style="fill:#FFFFFF;" d="M147,164.1L147,164.1c14.5,0,26.3,11.8,26.3,26.3v123.2c0,14.5-11.8,26.3-26.3,26.3l0,0
	c-14.5,0-26.3-11.8-26.3-26.3V190.4C120.7,175.9,132.5,164.1,147,164.1z"/>
<path style="fill:#E6E9EE;" d="M94.4,188.5L94.4,188.5c14.5,0,26.3,11.8,26.3,26.3v74.4c0,14.5-11.8,26.3-26.3,26.3l0,0
	c-14.5,0-26.3-11.8-26.3-26.3v-74.4C68.1,200.3,79.9,188.5,94.4,188.5z"/>
</svg>