<?xml version="1.0" encoding="iso-8859-1"?>
<!-- Uploaded to: SVG Repo, www.svgrepo.com, Generator: SVG Repo Mixer Tools -->
<svg version="1.1" id="Layer_1" xmlns="http://www.w3.org/2000/svg" xmlns:xlink="http://www.w3.org/1999/xlink" 
	 viewBox="0 0 511.999 511.999" xml:space="preserve">
<path style="fill:#0F8EE3;" d="M213.864,290.385v20.353c0,6.799-4.088,12.932-10.365,15.549l-67.241,28.017
	c-14.206,5.92-23.459,22.008-23.459,37.397v81.092h286.352v-81.092c0-15.389-9.254-31.479-23.459-37.397l-67.241-28.017
	c-6.277-2.615-10.365-8.749-10.365-15.549v-20.353H213.864z"/>
<g>
	<path style="fill:#FEBBA0;" d="M298.085,296.222v52.046c0,23.082-18.979,41.966-42.06,41.966l0,0
		c-23.082,0-42.162-18.885-42.162-41.966v-52.046H298.085z"/>
	<path style="fill:#FEBBA0;" d="M350.006,170.43v-30.443c0-51.83-42.017-93.848-93.848-93.848
		c-51.831,0-93.848,42.017-93.848,93.848h-0.368v30.443c-12.925,0-23.403,10.478-23.403,23.403
		c0,12.925,10.478,23.403,23.403,23.403v17.472c1.126,14.735,8.311,27.853,19.192,35.038l56.575,32.343
		c11.36,7.503,25.173,7.503,36.533,0l56.405-32.343c10.879-7.185,18.233-20.303,19.36-35.038v-17.472
		c12.925,0,23.403-10.478,23.403-23.403C373.409,180.908,362.931,170.43,350.006,170.43z"/>
</g>
<g>
	<path style="fill:#FF5957;" d="M161.943,143.686c-27.676-0.693-50.632-23.649-51.325-51.323
		C138.294,93.055,161.25,116.01,161.943,143.686z"/>
	<path style="fill:#FF5957;" d="M161.942,143.686c-0.693,27.676-23.649,50.632-51.323,51.325
		C111.312,167.334,134.267,144.378,161.942,143.686z"/>
	<path style="fill:#FF5957;" d="M161.943,143.686v-10.403c0-51.745,42.337-94.083,94.083-94.083l0,0
		c51.746,0,94.083,42.337,94.083,94.083v10.403H161.943z"/>
</g>
<circle style="fill:#FFAF18;" cx="174.052" cy="399.268" r="23.25"/>
<circle style="fill:#FF5957;" cx="202.293" cy="427.509" r="16.681"/>
<path style="fill:#DEDDE1;" d="M10.513,318.318c0,6.148,5.03,11.177,11.177,11.177h73.768c6.148,0,11.177-5.03,11.177-11.177
	v-91.052H10.514v91.052H10.513z"/>
<rect x="10.511" y="227.264" style="fill:#1991E2;" width="96.121" height="65.689"/>
<path style="fill:#314967;" d="M70.897,330.402v70.751c0,6.982-5.713,12.695-12.695,12.695l0,0c-6.982,0-12.695-5.713-12.695-12.695
	v-70.751"/>
<rect x="318.16" y="397.565" style="fill:#FFAF18;" width="157.722" height="43.881"/>
<path d="M10.585,483.249h-0.137C4.679,483.249,0,478.571,0,472.801c0-5.77,4.679-10.448,10.448-10.448h0.137
	c5.769,0,10.448,4.678,10.448,10.448C21.033,478.571,16.354,483.249,10.585,483.249z"/>
<path d="M501.501,483.241h-0.137c-5.769,0-10.448-4.678-10.448-10.448s4.679-10.448,10.448-10.448h0.137
	c5.769,0,10.448,4.678,10.448,10.448S507.27,483.241,501.501,483.241z"/>
<path d="M294.078,206.741c-6.439,0-11.679-5.239-11.679-11.678c0-6.44,5.24-11.679,11.679-11.679s11.678,5.239,11.678,11.679
	C305.755,201.503,300.517,206.741,294.078,206.741z"/>
<path d="M217.871,206.741c-6.439,0-11.678-5.239-11.678-11.678c0-6.44,5.239-11.679,11.678-11.679s11.679,5.239,11.679,11.679
	C229.549,201.503,224.31,206.741,217.871,206.741z"/>
<path d="M256.018,263.716c-11.39,0-20.658-9.267-20.658-20.658c0-5.77,4.679-10.448,10.448-10.448h20.419
	c5.769,0,10.448,4.678,10.448,10.448C276.675,254.45,267.409,263.716,256.018,263.716z"/>
<path d="M221.474,408.325c-3.825-3.825-8.591-6.366-13.777-7.409c0.444-9.169-2.827-18.486-9.814-25.472
	c-13.139-13.138-34.517-13.138-47.656,0c-13.138,13.139-13.138,34.518,0,47.656c6.57,6.57,15.199,9.853,23.829,9.853
	c0.547,0,1.096-0.014,1.643-0.041c1.044,5.185,3.584,9.952,7.409,13.777c5.124,5.124,11.937,7.946,19.182,7.946
	c7.246,0,14.059-2.822,19.181-7.946c0,0,0,0,0.001,0c5.124-5.124,7.946-11.937,7.946-19.182
	C229.421,420.26,226.599,413.448,221.474,408.325z M165.005,408.325c-4.991-4.991-4.991-13.113,0-18.104
	c2.496-2.496,5.774-3.743,9.052-3.743s6.556,1.247,9.052,3.743c4.991,4.991,4.991,13.113,0,18.104
	C178.117,413.317,169.996,413.317,165.005,408.325z M206.7,431.914L206.7,431.914c-1.179,1.177-2.743,1.826-4.408,1.826
	c-1.665,0-3.229-0.649-4.408-1.826c-1.176-1.177-1.825-2.743-1.825-4.407c0-1.663,0.648-3.226,1.823-4.404
	c0.001-0.001,0.002-0.002,0.003-0.003c0.001-0.001,0.002-0.002,0.003-0.004c1.176-1.174,2.739-1.822,4.403-1.822
	c1.665,0,3.229,0.649,4.408,1.826c1.176,1.177,1.825,2.743,1.825,4.407C208.525,429.172,207.876,430.737,206.7,431.914z"/>
<path d="M106.635,216.818H10.514c-5.769,0-10.448,4.678-10.448,10.448v91.052c0,11.924,9.701,21.625,21.624,21.625h13.368v61.209
	c0,12.761,10.383,23.143,23.143,23.143s23.142-10.382,23.142-23.143v-61.209h14.113c11.924,0,21.625-9.701,21.625-21.625v-91.052
	C117.083,221.496,112.404,216.818,106.635,216.818z M31.395,237.714v26.248c0,5.77,4.679,10.448,10.448,10.448
	s10.448-4.678,10.448-10.448v-26.248h11.493v26.248c0,5.77,4.679,10.448,10.448,10.448c5.769,0,10.448-4.678,10.448-10.448v-26.248
	h11.507v44.793H20.962v-44.793L31.395,237.714L31.395,237.714z M60.448,401.152c0,1.218-1.028,2.247-2.246,2.247
	s-2.247-1.029-2.247-2.247v-61.209h4.495v61.209H60.448z M95.457,319.047H21.69c-0.374,0-0.728-0.354-0.728-0.729v-14.914h75.225
	v14.914C96.187,318.693,95.833,319.047,95.457,319.047z"/>
<path d="M307.917,124.472c-5.769,0-10.448-4.678-10.448-10.448c0-13.94-15.934-25.715-34.796-25.715
	c-5.769,0-10.448-4.678-10.448-10.448c0-5.77,4.679-10.448,10.448-10.448c30.709,0,55.692,20.91,55.692,46.611
	C318.365,119.794,313.687,124.472,307.917,124.472z"/>
<path d="M414.708,204.356c-5.769,0-10.448-4.678-10.448-10.448v-0.137c0-5.77,4.679-10.448,10.448-10.448
	s10.448,4.678,10.448,10.448v0.137C425.156,199.678,420.477,204.356,414.708,204.356z"/>
<path d="M414.71,170.405c-5.769,0-10.448-4.678-10.448-10.448l-0.002-70.541c0-5.77,4.678-10.448,10.448-10.448
	c5.769,0,10.448,4.678,10.448,10.448l0.002,70.541C425.158,165.727,420.48,170.405,414.71,170.405z"/>
<path d="M490.916,319.954l-65.752,0.004l0.008-21.708l-0.001-70.541c0-5.77-4.679-10.448-10.448-10.448
	c-5.77,0-10.448,4.678-10.448,10.448l0.001,70.537l-0.008,21.708c0,11.522,9.374,20.896,20.896,20.896h65.752
	c0.05,0,0.137,0.057,0.188,0.11v68.101h-4.774v-11.493c0-5.77-4.679-10.448-10.448-10.448h-66.499
	c-1.676-18.631-13.403-35.681-29.673-42.46l-67.241-28.016c-2.39-0.996-3.936-3.313-3.936-5.904v-14.516v-1.753l27.311-15.659
	c0.19-0.11,0.377-0.225,0.56-0.346c13.674-9.031,22.653-25.091,24.019-42.961c0.021-0.264,0.03-0.531,0.03-0.796v-8.674
	c13.568-4.413,23.402-17.181,23.402-32.202c0-15.021-9.835-27.788-23.402-32.202v-28.349c0-57.638-46.79-104.531-104.428-104.531
	c-47.095,0-87.009,31.309-100.039,74.203c-11.298-12.496-27.415-20.596-45.108-21.039c-2.855-0.061-5.625,1.033-7.649,3.057
	s-3.128,4.788-3.057,7.649c0.529,21.096,11.949,39.947,28.727,51.062c-16.778,11.116-28.197,29.966-28.726,51.063
	c-0.071,2.861,1.033,5.626,3.057,7.65c1.962,1.961,4.621,3.06,7.388,3.06c0.087,0,0.174-0.001,0.261-0.003
	c6.339-0.159,12.473-1.307,18.259-3.282c2.866,11.264,11.388,20.293,22.356,23.86v8.674c0,0.265,0.01,0.532,0.03,0.796
	c1.372,17.943,10.288,34.003,23.851,42.961c0.187,0.123,0.377,0.24,0.573,0.352l27.467,15.702v16.22c0,2.59-1.545,4.907-3.936,5.904
	l-67.241,28.017c-17.597,7.332-29.887,26.677-29.887,47.041v70.644H44.436c-5.769,0-10.448,4.678-10.448,10.448
	s4.679,10.448,10.448,10.448h423.178c5.769,0,10.448-4.678,10.448-10.448s-4.679-10.448-10.448-10.448h-58.016v-10.448h66.284
	c5.769,0,10.448-4.678,10.448-10.448v-11.493h15.222c5.769,0,10.448-4.678,10.448-10.448v-78.658
	C512,329.328,502.542,319.954,490.916,319.954z M256.026,49.648c46.103,0,83.612,37.492,83.635,83.59H172.391
	C172.413,87.14,209.923,49.648,256.026,49.648z M123.629,105.373c11.619,4.316,20.986,13.682,25.303,25.301
	C137.314,126.359,127.946,116.99,123.629,105.373z M123.629,181.999c4.316-11.62,13.683-20.987,25.302-25.303
	C144.615,168.316,135.249,177.683,123.629,181.999z M186.636,260.856c-7.984-5.406-13.284-15.292-14.245-26.569v-17.052
	c0-5.77-4.679-10.448-10.448-10.448c-7.143,0-12.954-5.812-12.954-12.954c0-0.863-0.116-1.697-0.313-2.499
	c11.438-9.271,19.682-22.39,22.579-37.2h168.304v16.297c0,5.77,4.679,10.448,10.448,10.448c7.143,0,12.954,5.812,12.954,12.954
	c0,7.142-5.812,12.954-12.954,12.954c-5.769,0-10.448,4.678-10.448,10.448v17.05c-0.949,11.048-6.442,21.173-14.418,26.574
	l-56.095,32.164c-0.19,0.11-0.377,0.225-0.56,0.346c-7.834,5.173-17.184,5.173-25.018,0c-0.187-0.123-0.377-0.241-0.573-0.352
	L186.636,260.856z M287.638,306.451v41.818c0,17.379-14.181,31.518-31.612,31.518c-17.487,0-31.714-14.139-31.714-31.518v-41.805
	l7.939,4.539c7.333,4.763,15.529,7.144,23.725,7.144c8.198,0,16.396-2.383,23.731-7.148L287.638,306.451z M388.702,462.345H123.247
	v-70.644c0-11.776,7.321-23.707,17.029-27.753l63.14-26.308v10.629c0,28.901,23.601,52.414,52.61,52.414
	c28.953,0,52.508-23.513,52.508-52.414V337.64l63.141,26.308c8.445,3.519,15.079,13.009,16.662,23.171h-70.176
	c-5.769,0-10.448,4.678-10.448,10.448v11.493h-11.997c-5.769,0-10.448,4.678-10.448,10.448c0,5.77,4.679,10.448,10.448,10.448
	h11.997v11.493c0,5.77,4.679,10.448,10.448,10.448h70.541v10.448H388.702z M465.434,431.001H328.609v-22.985h136.825v22.985H465.434
	z"/>
</svg>