<?xml version="1.0" encoding="iso-8859-1"?>
<!-- Uploaded to: SVG Repo, www.svgrepo.com, Generator: SVG Repo Mixer Tools -->
<svg version="1.1" id="Layer_1" xmlns="http://www.w3.org/2000/svg" xmlns:xlink="http://www.w3.org/1999/xlink" 
	 viewBox="0 0 512 512" xml:space="preserve">
<path id="SVGCleanerId_0" style="fill:#89CD37;" d="M298.102,310.326v20.354c0,6.8,4.089,12.933,10.366,15.549l67.245,28.018
	c14.207,5.92,23.46,22.009,23.46,37.399v81.096H112.805v-81.096c0-15.39,9.254-31.48,23.46-37.399l67.245-28.018
	c6.277-2.615,10.366-8.75,10.366-15.549v-20.354H298.102z"/>
<path id="SVGCleanerId_1" style="fill:#FEBBA0;" d="M213.876,316.163v52.049c0,23.083,18.98,41.969,42.063,41.969l0,0
	c23.083,0,42.164-18.886,42.164-41.969v-52.049H213.876z"/>
<ellipse style="fill:#E59752;" cx="255.989" cy="163.122" rx="173.153" ry="39.872"/>
<path id="SVGCleanerId_2" style="fill:#FEBBA0;" d="M161.952,190.364v-30.445c0-51.834,42.02-93.853,93.853-93.853
	c51.834,0,93.853,42.02,93.853,93.853h0.368v30.445c12.926,0,23.405,10.479,23.405,23.405s-10.479,23.405-23.405,23.405v17.473
	c-1.126,14.736-8.312,27.855-19.193,35.04l-56.578,32.344c-11.361,7.503-25.175,7.503-36.535,0l-56.407-32.344
	c-10.88-7.185-18.234-20.305-19.361-35.04v-17.473c-12.926,0-23.405-10.479-23.405-23.405
	C138.548,200.842,149.027,190.364,161.952,190.364z"/>
<rect id="SVGCleanerId_3" x="336.902" y="365.269" style="fill:#0F8EE3;" width="101.34" height="127.472"/>
<path id="SVGCleanerId_4" style="fill:#EEB45D;" d="M255.989,123.243c-44.179,0-84.487,3.813-115.078,10.085
	c11.36-58.509,58.532-102.387,115.021-102.387c56.484,0,103.649,43.867,115.017,102.363
	C340.373,127.046,300.113,123.243,255.989,123.243z"/>
<path id="SVGCleanerId_5" style="fill:#89CD37;" d="M92.393,83.925c-36.556,8.186-59.512-14.772-51.326-51.328
	C77.623,24.41,100.579,47.367,92.393,83.925z"/>
<path id="SVGCleanerId_6" style="fill:#89CD37;" d="M482.213,20.929c8.186,36.556-14.772,59.513-51.328,51.326
	C422.699,35.699,445.656,12.743,482.213,20.929z"/>
<path id="SVGCleanerId_7" style="fill:#FFAF18;" d="M144.211,298.506c0-10.738-8.569-19.432-19.236-19.73
	c7.332-7.759,7.243-19.96-0.35-27.555c-7.593-7.592-19.795-7.683-27.555-0.35c-0.298-10.667-8.992-19.236-19.73-19.236
	s-19.432,8.569-19.73,19.236c-7.759-7.332-19.961-7.241-27.555,0.35c-7.592,7.595-7.683,19.796-0.35,27.555
	c-10.667,0.298-19.236,8.992-19.236,19.73c0,10.739,8.569,19.434,19.236,19.73c-7.332,7.76-7.241,19.961,0.35,27.555
	c7.593,7.593,19.796,7.683,27.555,0.352c0.298,10.667,8.992,19.234,19.73,19.234s19.432-8.567,19.73-19.234
	c7.76,7.331,19.961,7.241,27.555-0.352c7.593-7.593,7.683-19.795,0.35-27.555C135.644,317.94,144.211,309.246,144.211,298.506z"/>
<circle style="fill:#FF5957;" cx="77.34" cy="298.608" r="22.987"/>
<path id="SVGCleanerId_8" d="M501.529,503.191h-0.137c-5.77,0-10.449-4.678-10.449-10.449s4.679-10.449,10.449-10.449h0.137
	c5.77,0,10.449,4.678,10.449,10.449S507.298,503.191,501.529,503.191z"/>
<path id="SVGCleanerId_9" d="M10.586,503.191h-0.138C4.679,503.191,0,498.514,0,492.743s4.679-10.449,10.449-10.449h0.138
	c5.77,0,10.449,4.678,10.449,10.449S16.356,503.191,10.586,503.191z"/>
<path id="SVGCleanerId_10" d="M217.884,226.677c-6.439,0-11.679-5.239-11.679-11.678c0-6.44,5.24-11.679,11.679-11.679
	c6.439,0,11.679,5.239,11.679,11.679C229.563,221.438,224.323,226.677,217.884,226.677z"/>
<path id="SVGCleanerId_11" d="M294.094,226.677c-6.439,0-11.679-5.239-11.679-11.678c0-6.44,5.24-11.679,11.679-11.679
	c6.439,0,11.679,5.239,11.679,11.679C305.773,221.438,300.534,226.677,294.094,226.677z"/>
<path id="SVGCleanerId_12" d="M255.946,283.655c-11.391,0-20.659-9.268-20.659-20.659c0-5.771,4.679-10.449,10.449-10.449h20.421
	c5.77,0,10.449,4.678,10.449,10.449C276.603,274.388,267.337,283.655,255.946,283.655z"/>
<path id="SVGCleanerId_13" d="M255.938,446.064c-5.77,0-10.449-4.678-10.449-10.449v-0.137c0-5.771,4.679-10.448,10.449-10.448
	c5.77,0,10.449,4.678,10.449,10.448v0.137C266.387,441.385,261.709,446.064,255.938,446.064z"/>
<path id="SVGCleanerId_14" d="M78.081,96.048c-14.256,0-26.535-4.638-35.516-13.62c-12.31-12.309-16.464-30.817-11.694-52.114
	c0.885-3.946,3.966-7.03,7.913-7.913c21.302-4.768,39.805-0.616,52.112,11.693c12.309,12.309,16.463,30.817,11.693,52.114
	c-0.885,3.946-3.966,7.03-7.913,7.913C88.919,95.41,83.362,96.048,78.081,96.048z M92.393,83.925h0.01H92.393z M50.133,41.663
	c-1.169,11.014,1.31,20.091,7.207,25.99c5.897,5.897,14.967,8.374,25.985,7.207c1.169-11.015-1.31-20.092-7.206-25.99
	C70.222,42.973,61.15,40.495,50.133,41.663z"/>
<path id="SVGCleanerId_15" d="M445.2,84.378c-5.285,0-10.838-0.637-16.598-1.927c-3.946-0.884-7.029-3.966-7.913-7.913
	c-4.768-21.296-0.615-39.804,11.694-52.113c12.309-12.308,30.817-16.46,52.114-11.692c3.946,0.884,7.029,3.966,7.912,7.913
	c4.769,21.295,0.618,39.803-11.692,52.112C471.736,79.738,459.453,84.378,445.2,84.378z M439.95,63.189
	c11.013,1.17,20.091-1.31,25.99-7.207c5.897-5.897,8.377-14.974,7.206-25.986c-11.018-1.169-20.091,1.311-25.989,7.207
	C441.262,43.099,438.781,52.176,439.95,63.189z"/>
<path id="SVGCleanerId_16" d="M77.341,332.044c-18.436,0-33.435-14.999-33.435-33.435c0-18.436,14.999-33.434,33.435-33.434
	c18.437,0,33.437,14.999,33.437,33.434C110.778,317.044,95.778,332.044,77.341,332.044z M77.341,286.07
	c-6.914,0-12.538,5.624-12.538,12.538s5.624,12.538,12.538,12.538c6.915,0,12.54-5.624,12.54-12.538
	C89.881,291.694,84.257,286.07,77.341,286.07z"/>
<path id="SVGCleanerId_17" d="M154.66,298.506c0-11.072-5.842-20.694-14.683-25.947c2.536-9.966-0.137-20.898-7.964-28.727
	c-7.827-7.825-18.76-10.497-28.725-7.962c-5.252-8.842-14.875-14.684-25.947-14.684s-20.693,5.842-25.946,14.683
	c-9.966-2.534-20.898,0.137-28.728,7.966c-7.824,7.827-10.496,18.759-7.962,28.724c-8.84,5.252-14.683,14.875-14.683,25.947
	c0,11.074,5.842,20.696,14.683,25.948c-2.534,9.965,0.139,20.898,7.963,28.725c7.828,7.827,18.757,10.502,28.727,7.964
	c3.507,5.901,8.966,10.454,15.497,12.837v43.225c0,5.771,4.679,10.449,10.449,10.449c5.77,0,10.449-4.678,10.449-10.449V373.98
	c6.531-2.383,11.992-6.936,15.497-12.837c9.969,2.534,20.902-0.139,28.727-7.964c7.826-7.827,10.499-18.759,7.963-28.726
	C148.819,319.202,154.66,309.581,154.66,298.506z M124.686,307.792c-4.118,0.114-7.784,2.637-9.362,6.444s-0.772,8.183,2.057,11.177
	c3.5,3.704,3.437,9.411-0.144,12.991c-3.582,3.582-9.29,3.643-12.992,0.145c-2.993-2.828-7.372-3.634-11.176-2.056
	c-3.805,1.578-6.329,5.243-6.444,9.36c-0.142,5.091-4.221,9.078-9.286,9.078s-9.143-3.987-9.286-9.078
	c-0.115-4.118-2.638-7.783-6.444-9.36c-1.292-0.536-2.651-0.796-3.999-0.796c-2.62,0-5.201,0.985-7.178,2.853
	c-3.703,3.499-9.409,3.435-12.99-0.145c-3.581-3.581-3.643-9.288-0.145-12.992c2.829-2.995,3.635-7.371,2.057-11.177
	c-1.578-3.805-5.244-6.329-9.362-6.444c-5.089-0.141-9.078-4.22-9.078-9.286c0-5.064,3.987-9.143,9.078-9.286
	c4.118-0.115,7.784-2.638,9.362-6.444c1.577-3.805,0.77-8.183-2.059-11.177c-3.499-3.702-3.434-9.409,0.144-12.989
	c3.581-3.582,9.289-3.645,12.992-0.145c2.995,2.829,7.372,3.635,11.176,2.058c3.806-1.577,6.33-5.243,6.445-9.361
	c0.142-5.092,4.221-9.079,9.286-9.079s9.143,3.988,9.286,9.079c0.115,4.118,2.638,7.783,6.444,9.36
	c3.806,1.577,8.183,0.772,11.176-2.057c3.705-3.5,9.412-3.435,12.991,0.143c3.582,3.582,3.644,9.288,0.146,12.991
	c-2.829,2.995-3.635,7.371-2.059,11.177c1.578,3.805,5.244,6.33,9.362,6.444c5.091,0.142,9.078,4.221,9.078,9.286
	C133.763,303.573,129.776,307.651,124.686,307.792z"/>
<path id="SVGCleanerId_18" d="M77.342,462.208c-5.77,0-10.449-4.678-10.449-10.449v-0.137c0-5.771,4.679-10.449,10.449-10.449
	c5.77,0,10.449,4.678,10.449,10.449v0.137C87.79,457.53,83.113,462.208,77.342,462.208z"/>
<path id="SVGCleanerId_19" style="fill:#89CD37;" d="M451.832,299.29c-31.637-20.06-31.636-52.527,0.002-72.588
	C483.471,246.763,483.471,279.229,451.832,299.29z"/>
<path id="SVGCleanerId_20" d="M451.832,309.738c-1.943,0-3.888-0.541-5.594-1.625c-18.431-11.687-28.581-27.709-28.581-45.117
	c0-17.408,10.151-33.432,28.582-45.119c3.415-2.166,7.775-2.166,11.189,0c18.432,11.687,28.581,27.709,28.581,45.117
	c0,17.408-10.151,33.432-28.583,45.119C455.719,309.197,453.776,309.738,451.832,309.738z M451.833,239.523
	c-8.615,6.962-13.28,15.134-13.28,23.474c0,8.34,4.664,16.512,13.278,23.472c8.615-6.962,13.281-15.134,13.281-23.474
	C465.112,254.656,460.448,246.484,451.833,239.523z"/>
<path id="SVGCleanerId_21" d="M508.94,382.977l-13.286-13.286c-4.081-4.08-10.695-4.08-14.777,0
	c-3.982,3.981-4.067,10.369-0.279,14.468l-31.899,36.203v-55.091c0-5.771-4.679-10.449-10.449-10.449h-81.992l-43.772-18.238
	c-2.392-0.997-3.937-3.314-3.937-5.904v-16.221l27.468-15.703c0.195-0.111,0.386-0.229,0.573-0.352
	c13.563-8.958,22.481-25.018,23.852-42.962c0.021-0.264,0.03-0.531,0.03-0.796v-8.674c13.568-4.413,23.404-17.182,23.404-32.203
	c0-4.386-0.859-8.569-2.384-12.419c39.039-8.99,58.093-21.552,58.093-38.229c0-17.86-22.542-26.79-29.95-29.724
	c-8.269-3.276-18.375-6.261-29.934-8.881c-6.839-28.077-21.702-53.475-42.345-72.088c-22.839-20.593-51.757-31.934-81.424-31.934
	c-29.671,0-58.591,11.344-81.433,31.942c-20.646,18.618-35.507,44.023-42.343,72.107c-11.568,2.627-21.676,5.62-29.939,8.903
	c-7.378,2.932-29.827,11.851-29.827,29.676c0,16.677,19.054,29.239,58.093,38.229c-1.525,3.85-2.384,8.034-2.384,12.419
	c0,15.022,9.835,27.79,23.404,32.203v8.674c0,0.265,0.01,0.532,0.03,0.796c1.367,17.871,10.345,33.932,24.02,42.962
	c0.183,0.121,0.37,0.237,0.56,0.346l27.313,15.661v16.269c0,2.59-1.545,4.909-3.936,5.904l-67.245,28.018
	c-17.599,7.333-29.89,26.678-29.89,47.044v70.648H44.41c-5.77,0-10.449,4.678-10.449,10.449s4.679,10.449,10.449,10.449h423.201
	c5.77,0,10.449-4.678,10.449-10.449s-4.679-10.449-10.449-10.449h-18.914v-30.323l46.793-53.107c1.809,1.292,3.932,1.95,6.06,1.95
	c2.675,0,5.348-1.02,7.388-3.06C513.02,393.673,513.02,387.057,508.94,382.977z M369.052,143.567
	c37.01,7.582,48.321,16.746,49.58,19.555c-1.353,3.126-13.513,12.62-53.571,20.332c-1.473-0.735-3.003-1.374-4.588-1.89v-21.646
	c0-6.128-0.635-12.092-1.938-18.318C362.067,142.215,368.986,143.555,369.052,143.567z M255.932,41.389
	c45.331,0,85.699,32.298,100.829,78.718c-0.189-0.03-9.163-1.385-10.966-1.633c-0.034-0.005-0.068-0.004-0.103-0.009
	c-27.024-3.69-57.943-5.671-89.705-5.671c-31.903,0-62.952,1.999-90.06,5.722c-0.047,0.006-0.094,0.005-0.141,0.013
	c-3.516,0.485-10.566,1.578-10.69,1.599C170.223,73.695,210.594,41.389,255.932,41.389z M93.345,163.123
	c1.256-2.8,12.533-11.945,49.429-19.523c0.079-0.015,6.965-1.351,10.463-1.962c-1.156,6.026-1.733,12.035-1.733,18.282v21.646
	c-1.585,0.516-3.114,1.156-4.588,1.89C106.858,175.742,94.698,166.248,93.345,163.123z M186.819,280.799
	c-7.977-5.401-13.47-15.526-14.419-26.576v-17.051c0-5.771-4.679-10.449-10.449-10.449c-7.144,0-12.955-5.813-12.955-12.955
	c0-7.143,5.813-12.955,12.955-12.955c5.77,0,10.449-4.678,10.449-10.449V159.92c0-7.458,0.982-14.295,3.099-21.579
	c24.516-3.029,52.111-4.649,80.489-4.649c28.244,0,55.714,1.606,80.145,4.608c2.38,7.841,3.443,14.538,3.443,21.62v30.445
	c0,5.771,4.679,10.449,10.449,10.449c7.144,0,12.955,5.813,12.955,12.955c0,7.143-5.813,12.955-12.955,12.955
	c-5.77,0-10.449,4.678-10.449,10.449v17.053c-0.961,11.278-6.262,21.165-14.246,26.571l-56.262,32.163
	c-0.195,0.111-0.386,0.229-0.573,0.352c-7.831,5.172-17.185,5.174-25.018,0c-0.183-0.121-0.37-0.236-0.56-0.346L186.819,280.799z
	 M224.324,326.392l7.931,4.547c7.336,4.766,15.534,7.148,23.733,7.148c8.196,0,16.392-2.381,23.725-7.145l7.94-4.539v41.808
	c0,17.38-14.228,31.52-31.715,31.52c-17.432,0-31.613-14.14-31.613-31.52v-41.819H224.324z M326.458,449.493
	c-7.438-3.807-12.547-11.558-12.547-20.485s5.108-16.678,12.547-20.485V449.493z M326.458,365.271v21.103
	c-19.171,4.688-33.444,22.019-33.444,42.633c0,20.614,14.273,37.944,33.444,42.633v10.654h-60.073v-12.877
	c0-5.771-4.679-10.449-10.449-10.449c-5.77,0-10.449,4.678-10.449,10.449v12.877H123.254v-70.648
	c0-11.778,7.321-23.709,17.03-27.754l63.145-26.309v10.629c0,28.903,23.556,52.417,52.51,52.417
	c29.011,0,52.612-23.514,52.612-52.417v-10.629l17.919,7.466C326.469,365.124,326.458,365.197,326.458,365.271z M427.802,482.294
	h-80.445V375.72h80.445V482.294z"/>
<g>
	<path id="SVGCleanerId_0_1_" style="fill:#89CD37;" d="M298.102,310.326v20.354c0,6.8,4.089,12.933,10.366,15.549l67.245,28.018
		c14.207,5.92,23.46,22.009,23.46,37.399v81.096H112.805v-81.096c0-15.39,9.254-31.48,23.46-37.399l67.245-28.018
		c6.277-2.615,10.366-8.75,10.366-15.549v-20.354H298.102z"/>
</g>
<g>
	<path id="SVGCleanerId_1_1_" style="fill:#FEBBA0;" d="M213.876,316.163v52.049c0,23.083,18.98,41.969,42.063,41.969l0,0
		c23.083,0,42.164-18.886,42.164-41.969v-52.049H213.876z"/>
</g>
<ellipse style="fill:#E59752;" cx="255.989" cy="163.122" rx="173.153" ry="39.872"/>
<g>
	<path id="SVGCleanerId_2_1_" style="fill:#FEBBA0;" d="M161.952,190.364v-30.445c0-51.834,42.02-93.853,93.853-93.853
		c51.834,0,93.853,42.02,93.853,93.853h0.368v30.445c12.926,0,23.405,10.479,23.405,23.405s-10.479,23.405-23.405,23.405v17.473
		c-1.126,14.736-8.312,27.855-19.193,35.04l-56.578,32.344c-11.361,7.503-25.175,7.503-36.535,0l-56.407-32.344
		c-10.88-7.185-18.234-20.305-19.361-35.04v-17.473c-12.926,0-23.405-10.479-23.405-23.405
		C138.548,200.842,149.027,190.364,161.952,190.364z"/>
</g>
<g>
	<rect id="SVGCleanerId_3_1_" x="336.902" y="365.269" style="fill:#0F8EE3;" width="101.34" height="127.472"/>
</g>
<g>
	<path id="SVGCleanerId_4_1_" style="fill:#EEB45D;" d="M255.989,123.243c-44.179,0-84.487,3.813-115.078,10.085
		c11.36-58.509,58.532-102.387,115.021-102.387c56.484,0,103.649,43.867,115.017,102.363
		C340.373,127.046,300.113,123.243,255.989,123.243z"/>
</g>
<g>
	<path id="SVGCleanerId_5_1_" style="fill:#89CD37;" d="M92.393,83.925c-36.556,8.186-59.512-14.772-51.326-51.328
		C77.623,24.41,100.579,47.367,92.393,83.925z"/>
</g>
<g>
	<path id="SVGCleanerId_6_1_" style="fill:#89CD37;" d="M482.213,20.929c8.186,36.556-14.772,59.513-51.328,51.326
		C422.699,35.699,445.656,12.743,482.213,20.929z"/>
</g>
<g>
	<path id="SVGCleanerId_7_1_" style="fill:#FFAF18;" d="M144.211,298.506c0-10.738-8.569-19.432-19.236-19.73
		c7.332-7.759,7.243-19.96-0.35-27.555c-7.593-7.592-19.795-7.683-27.555-0.35c-0.298-10.667-8.992-19.236-19.73-19.236
		s-19.432,8.569-19.73,19.236c-7.759-7.332-19.961-7.241-27.555,0.35c-7.592,7.595-7.683,19.796-0.35,27.555
		c-10.667,0.298-19.236,8.992-19.236,19.73c0,10.739,8.569,19.434,19.236,19.73c-7.332,7.76-7.241,19.961,0.35,27.555
		c7.593,7.593,19.796,7.683,27.555,0.352c0.298,10.667,8.992,19.234,19.73,19.234s19.432-8.567,19.73-19.234
		c7.76,7.331,19.961,7.241,27.555-0.352c7.593-7.593,7.683-19.795,0.35-27.555C135.644,317.94,144.211,309.246,144.211,298.506z"/>
</g>
<circle style="fill:#FF5957;" cx="77.34" cy="298.608" r="22.987"/>
<g>
	<path id="SVGCleanerId_8_1_" d="M501.529,503.191h-0.137c-5.77,0-10.449-4.678-10.449-10.449s4.679-10.449,10.449-10.449h0.137
		c5.77,0,10.449,4.678,10.449,10.449S507.298,503.191,501.529,503.191z"/>
</g>
<g>
	<path id="SVGCleanerId_9_1_" d="M10.586,503.191h-0.138C4.679,503.191,0,498.514,0,492.743s4.679-10.449,10.449-10.449h0.138
		c5.77,0,10.449,4.678,10.449,10.449S16.356,503.191,10.586,503.191z"/>
</g>
<g>
	<path id="SVGCleanerId_10_1_" d="M217.884,226.677c-6.439,0-11.679-5.239-11.679-11.678c0-6.44,5.24-11.679,11.679-11.679
		c6.439,0,11.679,5.239,11.679,11.679C229.563,221.438,224.323,226.677,217.884,226.677z"/>
</g>
<g>
	<path id="SVGCleanerId_11_1_" d="M294.094,226.677c-6.439,0-11.679-5.239-11.679-11.678c0-6.44,5.24-11.679,11.679-11.679
		c6.439,0,11.679,5.239,11.679,11.679C305.773,221.438,300.534,226.677,294.094,226.677z"/>
</g>
<g>
	<path id="SVGCleanerId_12_1_" d="M255.946,283.655c-11.391,0-20.659-9.268-20.659-20.659c0-5.771,4.679-10.449,10.449-10.449
		h20.421c5.77,0,10.449,4.678,10.449,10.449C276.603,274.388,267.337,283.655,255.946,283.655z"/>
</g>
<g>
	<path id="SVGCleanerId_13_1_" d="M255.938,446.064c-5.77,0-10.449-4.678-10.449-10.449v-0.137c0-5.771,4.679-10.448,10.449-10.448
		c5.77,0,10.449,4.678,10.449,10.448v0.137C266.387,441.385,261.709,446.064,255.938,446.064z"/>
</g>
<g>
	<path id="SVGCleanerId_14_1_" d="M78.081,96.048c-14.256,0-26.535-4.638-35.516-13.62c-12.31-12.309-16.464-30.817-11.694-52.114
		c0.885-3.946,3.966-7.03,7.913-7.913c21.302-4.768,39.805-0.616,52.112,11.693c12.309,12.309,16.463,30.817,11.693,52.114
		c-0.885,3.946-3.966,7.03-7.913,7.913C88.919,95.41,83.362,96.048,78.081,96.048z M92.393,83.925h0.01H92.393z M50.133,41.663
		c-1.169,11.014,1.31,20.091,7.207,25.99c5.897,5.897,14.967,8.374,25.985,7.207c1.169-11.015-1.31-20.092-7.206-25.99
		C70.222,42.973,61.15,40.495,50.133,41.663z"/>
</g>
<g>
	<path id="SVGCleanerId_15_1_" d="M445.2,84.378c-5.285,0-10.838-0.637-16.598-1.927c-3.946-0.884-7.029-3.966-7.913-7.913
		c-4.768-21.296-0.615-39.804,11.694-52.113c12.309-12.308,30.817-16.46,52.114-11.692c3.946,0.884,7.029,3.966,7.912,7.913
		c4.769,21.295,0.618,39.803-11.692,52.112C471.736,79.738,459.453,84.378,445.2,84.378z M439.95,63.189
		c11.013,1.17,20.091-1.31,25.99-7.207c5.897-5.897,8.377-14.974,7.206-25.986c-11.018-1.169-20.091,1.311-25.989,7.207
		C441.262,43.099,438.781,52.176,439.95,63.189z"/>
</g>
<g>
	<path id="SVGCleanerId_16_1_" d="M77.341,332.044c-18.436,0-33.435-14.999-33.435-33.435c0-18.436,14.999-33.434,33.435-33.434
		c18.437,0,33.437,14.999,33.437,33.434C110.778,317.044,95.778,332.044,77.341,332.044z M77.341,286.07
		c-6.914,0-12.538,5.624-12.538,12.538s5.624,12.538,12.538,12.538c6.915,0,12.54-5.624,12.54-12.538
		C89.881,291.694,84.257,286.07,77.341,286.07z"/>
</g>
<g>
	<path id="SVGCleanerId_17_1_" d="M154.66,298.506c0-11.072-5.842-20.694-14.683-25.947c2.536-9.966-0.137-20.898-7.964-28.727
		c-7.827-7.825-18.76-10.497-28.725-7.962c-5.252-8.842-14.875-14.684-25.947-14.684s-20.693,5.842-25.946,14.683
		c-9.966-2.534-20.898,0.137-28.728,7.966c-7.824,7.827-10.496,18.759-7.962,28.724c-8.84,5.252-14.683,14.875-14.683,25.947
		c0,11.074,5.842,20.696,14.683,25.948c-2.534,9.965,0.139,20.898,7.963,28.725c7.828,7.827,18.757,10.502,28.727,7.964
		c3.507,5.901,8.966,10.454,15.497,12.837v43.225c0,5.771,4.679,10.449,10.449,10.449c5.77,0,10.449-4.678,10.449-10.449V373.98
		c6.531-2.383,11.992-6.936,15.497-12.837c9.969,2.534,20.902-0.139,28.727-7.964c7.826-7.827,10.499-18.759,7.963-28.726
		C148.819,319.202,154.66,309.581,154.66,298.506z M124.686,307.792c-4.118,0.114-7.784,2.637-9.362,6.444
		s-0.772,8.183,2.057,11.177c3.5,3.704,3.437,9.411-0.144,12.991c-3.582,3.582-9.29,3.643-12.992,0.145
		c-2.993-2.828-7.372-3.634-11.176-2.056c-3.805,1.578-6.329,5.243-6.444,9.36c-0.142,5.091-4.221,9.078-9.286,9.078
		s-9.143-3.987-9.286-9.078c-0.115-4.118-2.638-7.783-6.444-9.36c-1.292-0.536-2.651-0.796-3.999-0.796
		c-2.62,0-5.201,0.985-7.178,2.853c-3.703,3.499-9.409,3.435-12.99-0.145c-3.581-3.581-3.643-9.288-0.145-12.992
		c2.829-2.995,3.635-7.371,2.057-11.177c-1.578-3.805-5.244-6.329-9.362-6.444c-5.089-0.141-9.078-4.22-9.078-9.286
		c0-5.064,3.987-9.143,9.078-9.286c4.118-0.115,7.784-2.638,9.362-6.444c1.577-3.805,0.77-8.183-2.059-11.177
		c-3.499-3.702-3.434-9.409,0.144-12.989c3.581-3.582,9.289-3.645,12.992-0.145c2.995,2.829,7.372,3.635,11.176,2.058
		c3.806-1.577,6.33-5.243,6.445-9.361c0.142-5.092,4.221-9.079,9.286-9.079s9.143,3.988,9.286,9.079
		c0.115,4.118,2.638,7.783,6.444,9.36c3.806,1.577,8.183,0.772,11.176-2.057c3.705-3.5,9.412-3.435,12.991,0.143
		c3.582,3.582,3.644,9.288,0.146,12.991c-2.829,2.995-3.635,7.371-2.059,11.177c1.578,3.805,5.244,6.33,9.362,6.444
		c5.091,0.142,9.078,4.221,9.078,9.286C133.763,303.573,129.776,307.651,124.686,307.792z"/>
</g>
<g>
	<path id="SVGCleanerId_18_1_" d="M77.342,462.208c-5.77,0-10.449-4.678-10.449-10.449v-0.137c0-5.771,4.679-10.449,10.449-10.449
		c5.77,0,10.449,4.678,10.449,10.449v0.137C87.79,457.53,83.113,462.208,77.342,462.208z"/>
</g>
<g>
	<path id="SVGCleanerId_19_1_" style="fill:#89CD37;" d="M451.832,299.29c-31.637-20.06-31.636-52.527,0.002-72.588
		C483.471,246.763,483.471,279.229,451.832,299.29z"/>
</g>
<g>
	<path id="SVGCleanerId_20_1_" d="M451.832,309.738c-1.943,0-3.888-0.541-5.594-1.625c-18.431-11.687-28.581-27.709-28.581-45.117
		c0-17.408,10.151-33.432,28.582-45.119c3.415-2.166,7.775-2.166,11.189,0c18.432,11.687,28.581,27.709,28.581,45.117
		c0,17.408-10.151,33.432-28.583,45.119C455.719,309.197,453.776,309.738,451.832,309.738z M451.833,239.523
		c-8.615,6.962-13.28,15.134-13.28,23.474c0,8.34,4.664,16.512,13.278,23.472c8.615-6.962,13.281-15.134,13.281-23.474
		C465.112,254.656,460.448,246.484,451.833,239.523z"/>
</g>
<g>
	<path id="SVGCleanerId_21_1_" d="M508.94,382.977l-13.286-13.286c-4.081-4.08-10.695-4.08-14.777,0
		c-3.982,3.981-4.067,10.369-0.279,14.468l-31.899,36.203v-55.091c0-5.771-4.679-10.449-10.449-10.449h-81.992l-43.772-18.238
		c-2.392-0.997-3.937-3.314-3.937-5.904v-16.221l27.468-15.703c0.195-0.111,0.386-0.229,0.573-0.352
		c13.563-8.958,22.481-25.018,23.852-42.962c0.021-0.264,0.03-0.531,0.03-0.796v-8.674c13.568-4.413,23.404-17.182,23.404-32.203
		c0-4.386-0.859-8.569-2.384-12.419c39.039-8.99,58.093-21.552,58.093-38.229c0-17.86-22.542-26.79-29.95-29.724
		c-8.269-3.276-18.375-6.261-29.934-8.881c-6.839-28.077-21.702-53.475-42.345-72.088c-22.839-20.593-51.757-31.934-81.424-31.934
		c-29.671,0-58.591,11.344-81.433,31.942c-20.646,18.618-35.507,44.023-42.343,72.107c-11.568,2.627-21.676,5.62-29.939,8.903
		c-7.378,2.932-29.827,11.851-29.827,29.676c0,16.677,19.054,29.239,58.093,38.229c-1.525,3.85-2.384,8.034-2.384,12.419
		c0,15.022,9.835,27.79,23.404,32.203v8.674c0,0.265,0.01,0.532,0.03,0.796c1.367,17.871,10.345,33.932,24.02,42.962
		c0.183,0.121,0.37,0.237,0.56,0.346l27.313,15.661v16.269c0,2.59-1.545,4.909-3.936,5.904l-67.245,28.018
		c-17.599,7.333-29.89,26.678-29.89,47.044v70.648H44.41c-5.77,0-10.449,4.678-10.449,10.449s4.679,10.449,10.449,10.449h423.201
		c5.77,0,10.449-4.678,10.449-10.449s-4.679-10.449-10.449-10.449h-18.914v-30.323l46.793-53.107c1.809,1.292,3.932,1.95,6.06,1.95
		c2.675,0,5.348-1.02,7.388-3.06C513.02,393.673,513.02,387.057,508.94,382.977z M369.052,143.567
		c37.01,7.582,48.321,16.746,49.58,19.555c-1.353,3.126-13.513,12.62-53.571,20.332c-1.473-0.735-3.003-1.374-4.588-1.89v-21.646
		c0-6.128-0.635-12.092-1.938-18.318C362.067,142.215,368.986,143.555,369.052,143.567z M255.932,41.389
		c45.331,0,85.699,32.298,100.829,78.718c-0.189-0.03-9.163-1.385-10.966-1.633c-0.034-0.005-0.068-0.004-0.103-0.009
		c-27.024-3.69-57.943-5.671-89.705-5.671c-31.903,0-62.952,1.999-90.06,5.722c-0.047,0.006-0.094,0.005-0.141,0.013
		c-3.516,0.485-10.566,1.578-10.69,1.599C170.223,73.695,210.594,41.389,255.932,41.389z M93.345,163.123
		c1.256-2.8,12.533-11.945,49.429-19.523c0.079-0.015,6.965-1.351,10.463-1.962c-1.156,6.026-1.733,12.035-1.733,18.282v21.646
		c-1.585,0.516-3.114,1.156-4.588,1.89C106.858,175.742,94.698,166.248,93.345,163.123z M186.819,280.799
		c-7.977-5.401-13.47-15.526-14.419-26.576v-17.051c0-5.771-4.679-10.449-10.449-10.449c-7.144,0-12.955-5.813-12.955-12.955
		c0-7.143,5.813-12.955,12.955-12.955c5.77,0,10.449-4.678,10.449-10.449V159.92c0-7.458,0.982-14.295,3.099-21.579
		c24.516-3.029,52.111-4.649,80.489-4.649c28.244,0,55.714,1.606,80.145,4.608c2.38,7.841,3.443,14.538,3.443,21.62v30.445
		c0,5.771,4.679,10.449,10.449,10.449c7.144,0,12.955,5.813,12.955,12.955c0,7.143-5.813,12.955-12.955,12.955
		c-5.77,0-10.449,4.678-10.449,10.449v17.053c-0.961,11.278-6.262,21.165-14.246,26.571l-56.262,32.163
		c-0.195,0.111-0.386,0.229-0.573,0.352c-7.831,5.172-17.185,5.174-25.018,0c-0.183-0.121-0.37-0.236-0.56-0.346L186.819,280.799z
		 M224.324,326.392l7.931,4.547c7.336,4.766,15.534,7.148,23.733,7.148c8.196,0,16.392-2.381,23.725-7.145l7.94-4.539v41.808
		c0,17.38-14.228,31.52-31.715,31.52c-17.432,0-31.613-14.14-31.613-31.52v-41.819H224.324z M326.458,449.493
		c-7.438-3.807-12.547-11.558-12.547-20.485s5.108-16.678,12.547-20.485V449.493z M326.458,365.271v21.103
		c-19.171,4.688-33.444,22.019-33.444,42.633c0,20.614,14.273,37.944,33.444,42.633v10.654h-60.073v-12.877
		c0-5.771-4.679-10.449-10.449-10.449c-5.77,0-10.449,4.678-10.449,10.449v12.877H123.254v-70.648
		c0-11.778,7.321-23.709,17.03-27.754l63.145-26.309v10.629c0,28.903,23.556,52.417,52.51,52.417
		c29.011,0,52.612-23.514,52.612-52.417v-10.629l17.919,7.466C326.469,365.124,326.458,365.197,326.458,365.271z M427.802,482.294
		h-80.445V375.72h80.445V482.294z"/>
</g>
</svg>