<?xml version="1.0" encoding="iso-8859-1"?>
<!-- Uploaded to: SVG Repo, www.svgrepo.com, Generator: SVG Repo Mixer Tools -->
<svg height="800px" width="800px" version="1.1" id="Layer_1" xmlns="http://www.w3.org/2000/svg" xmlns:xlink="http://www.w3.org/1999/xlink" 
	 viewBox="0 0 512 512" xml:space="preserve">
<path style="fill:#FFE069;" d="M150.104,290.766V143.036c0-70.754,57.889-128.643,128.643-128.643h10.024
	c70.754,0,128.643,57.889,128.643,128.643v147.729H150.104z"/>
<g>
	<path style="fill:#FEBBA0;" d="M242.321,318.111v20.028c0,6.691-4.023,12.726-10.2,15.3l-66.167,27.57
		c-13.979,5.825-23.084,21.656-23.084,36.8v79.797h281.78v-79.797c0-15.143-9.106-30.976-23.084-36.8l-66.167-27.57
		c-6.177-2.573-10.2-8.609-10.2-15.3v-20.028H242.321z"/>
	<path style="fill:#FEBBA0;" d="M376.289,170.115v93.209c-1.108,14.499-8.344,27.408-19.051,34.479l-55.505,31.826
		c-11.179,7.383-24.77,7.383-35.95,0l-55.671-31.826c-10.706-7.07-17.776-19.979-18.885-34.479v-93.209h66.57l25.962-43.156
		l23.989,43.156H376.289z"/>
</g>
<path style="fill:#FF5957;" d="M401.565,381.009l-66.167-27.57c-1.958-0.815-3.697-1.981-5.162-3.403l-46.477,46.381l-46.382-46.478
	c-1.486,1.465-3.255,2.667-5.257,3.501l-66.167,27.57c-13.979,5.825-23.084,21.656-23.084,36.8v79.796h281.78v-79.797
	C424.649,402.665,415.542,386.832,401.565,381.009z"/>
<path style="fill:#0F8EE3;" d="M501.719,284.612v76.973c0,8.706-7.058,15.764-15.764,15.764h-37.657v-23.086h18.293
	c4.648,0,8.416-3.768,8.416-8.417v-61.233v-0.197v-61.431c0-4.649-3.768-8.417-8.417-8.417h-18.293v-22.889h37.656
	c8.706,0,15.764,7.058,15.764,15.764v76.973v0.197H501.719z"/>
<path d="M18.641,507.888h-0.135c-5.678,0-10.281-4.603-10.281-10.281c0-5.678,4.603-10.281,10.281-10.281h0.135
	c5.678,0,10.281,4.603,10.281,10.281C28.922,503.285,24.319,507.888,18.641,507.888z"/>
<path d="M501.719,507.888h-0.135c-5.678,0-10.281-4.603-10.281-10.281c0-5.678,4.603-10.281,10.281-10.281h0.135
	c5.678,0,10.281,4.603,10.281,10.281C512,503.285,507.397,507.888,501.719,507.888z"/>
<path d="M321.253,235.803c6.337,0,11.492-5.155,11.492-11.491c0-6.337-5.155-11.492-11.492-11.492
	c-6.337,0-11.492,5.155-11.492,11.492C309.762,230.648,314.917,235.803,321.253,235.803z"/>
<path d="M246.265,212.819c-6.337,0-11.492,5.155-11.492,11.492c0,6.336,5.155,11.491,11.492,11.491s11.492-5.155,11.492-11.491
	C257.756,217.974,252.601,212.819,246.265,212.819z"/>
<path d="M304.129,271.54c0-5.678-4.603-10.281-10.281-10.281h-20.092c-5.678,0-10.281,4.603-10.281,10.281
	c0,11.208,9.119,20.328,20.327,20.328C295.011,291.868,304.129,282.749,304.129,271.54z"/>
<path d="M313.359,463.679h-0.135c-5.678,0-10.281-4.603-10.281-10.281c0-5.678,4.603-10.281,10.281-10.281h0.135
	c5.678,0,10.281,4.603,10.281,10.281C323.641,459.076,319.038,463.679,313.359,463.679z"/>
<path d="M385.193,463.679H346.62c-5.678,0-10.281-4.603-10.281-10.281c0-5.678,4.603-10.281,10.281-10.281h38.573
	c5.678,0,10.281,4.603,10.281,10.281C395.474,459.076,390.871,463.679,385.193,463.679z"/>
<path d="M254.293,463.679h-0.135c-5.678,0-10.281-4.603-10.281-10.281c0-5.678,4.603-10.281,10.281-10.281h0.135
	c5.678,0,10.281,4.603,10.281,10.281C264.574,459.076,259.972,463.679,254.293,463.679z"/>
<path d="M485.955,181.398h-37.656c-5.678,0-10.281,4.603-10.281,10.281v22.888c0,5.678,4.603,10.281,10.281,10.281h16.428v2.72
	h-16.464c-5.678,0-10.281,4.603-10.281,10.281c0,5.678,4.603,10.281,10.281,10.281h16.464v2.72h-16.463
	c-5.678,0-10.281,4.603-10.281,10.281c0,5.678,4.603,10.281,10.281,10.281h16.463v2.72h-16.464c-5.677,0-10.281,4.603-10.281,10.281
	c0,5.677,4.603,10.281,10.281,10.281h16.464v2.72h-16.464c-5.678,0-10.281,4.604-10.281,10.281c0,5.678,4.604,10.281,10.281,10.281
	h16.464v2.72h-16.464c-5.678,0-10.281,4.603-10.281,10.281s4.603,10.281,10.281,10.281h16.464v2.72h-16.428
	c-5.678,0-10.281,4.603-10.281,10.281v23.086c0,5.678,4.603,10.281,10.281,10.281h37.656c6.957,0,13.498-2.709,18.418-7.629
	S512,368.542,512,361.585V207.443C512,193.082,500.315,181.398,485.955,181.398z M491.438,361.585L491.438,361.585
	c0,1.465-0.571,2.842-1.606,3.877c-1.035,1.035-2.413,1.606-3.877,1.606H458.58v-2.524h8.012c10.31,0,18.697-8.388,18.697-18.698
	V222.984c0-10.31-8.388-18.698-18.698-18.698h-8.012v-2.327h27.375c3.023,0,5.483,2.46,5.483,5.483v154.143H491.438z"/>
<path d="M134.452,305.232c-9.486,0-18.04,4.054-24.032,10.514l-15.432-32.669l28.116-59.523c2.425-5.134,0.229-11.262-4.905-13.687
	c-5.134-2.425-11.262-0.229-13.687,4.905l-20.894,44.234l-20.892-44.233c-2.425-5.134-8.554-7.333-13.687-4.905
	c-5.134,2.425-7.33,8.553-4.905,13.687c0,0,13.741,29.084,28.118,59.517l-15.433,32.672c-5.992-6.46-14.546-10.513-24.031-10.513
	C14.708,305.232,0,319.939,0,338.019s14.708,32.788,32.788,32.788c13.289,0,24.749-7.951,29.892-19.343
	c0.013-0.028,0.032-0.052,0.045-0.08l20.896-44.24c11.455,24.246,20.944,44.331,20.951,44.347
	c5.15,11.377,16.601,19.317,29.88,19.317c18.078,0,32.788-14.708,32.788-32.788S152.532,305.232,134.452,305.232z M32.788,350.244
	c-6.741,0-12.225-5.484-12.225-12.225c0-6.74,5.484-12.224,12.225-12.224s12.225,5.484,12.225,12.224
	C45.012,344.76,39.528,350.244,32.788,350.244z M134.452,350.244c-6.74,0-12.224-5.484-12.224-12.225
	c0-6.74,5.484-12.224,12.224-12.224c6.741,0,12.225,5.484,12.225,12.224C146.678,344.76,141.194,350.244,134.452,350.244z"/>
<path d="M468.323,487.325h-33.392v-69.516c0-20.04-12.095-39.075-29.411-46.291l-66.168-27.569c-2.352-0.98-3.873-3.26-3.873-5.81
	v-16.01l26.874-15.409c0.187-0.107,0.371-0.221,0.552-0.34c2.376-1.569,4.599-3.363,6.67-5.335h47.839
	c5.678,0,10.281-4.603,10.281-10.281V143.036c0-76.603-62.321-138.924-138.924-138.924h-10.024
	c-76.603,0-138.924,62.321-138.924,138.924v147.728c0,5.678,4.603,10.281,10.281,10.281h47.293c0.129,0,0.252-0.014,0.379-0.02
	c2.071,1.984,4.294,3.784,6.671,5.354c0.184,0.121,0.372,0.236,0.563,0.346l27.028,15.452v15.96c0,2.549-1.521,4.829-3.873,5.81
	l-66.168,27.57c-17.316,7.216-29.41,26.251-29.41,46.29v69.517H51.902c-5.678,0-10.281,4.603-10.281,10.281
	c0,5.678,4.603,10.281,10.281,10.281h416.421c5.678,0,10.281-4.603,10.281-10.281C478.604,491.928,474.001,487.325,468.323,487.325z
	 M283.759,381.863l-33.256-33.325c1.352-3.228,2.099-6.744,2.099-10.397v-4.206l7.812,4.466c7.216,4.687,15.281,7.03,23.346,7.03
	c8.068,0,16.135-2.345,23.353-7.034l7.804-4.474v4.219c0,3.653,0.746,7.17,2.099,10.397L283.759,381.863z M191.229,159.833
	c-5.678,0-10.281,4.603-10.281,10.281v93.209c0,0.261,0.01,0.523,0.03,0.783c0.437,5.713,1.661,11.226,3.556,16.378h-24.148V143.036
	c0-65.265,53.097-118.361,118.361-118.361h10.024c65.265,0,118.361,53.097,118.361,118.361v137.447h-24.181
	c1.902-5.119,3.135-10.59,3.579-16.252c0.025-0.286,0.039-0.576,0.04-0.868c0-0.001,0-0.003,0-0.004c0-0.002,0-0.005,0-0.007
	s0-0.005,0-0.008c0-0.001,0-0.004,0-0.005c0-0.005,0-0.009,0-0.014v-93.209c0-5.678-4.603-10.281-10.281-10.281h-62.493
	l-21.052-37.869c-1.783-3.208-5.141-5.222-8.81-5.285c-3.677-0.048-7.094,1.835-8.986,4.98l-22.963,38.174h-60.757V159.833z
	 M215.527,289.054c-7.857-5.319-13.071-15.047-14.017-26.145v-82.513h56.289c3.608,0,6.951-1.891,8.81-4.981l16.798-27.927
	l15.355,27.621c1.814,3.263,5.253,5.287,8.986,5.287h58.26v82.512c-0.934,10.872-6.339,20.836-14.188,26.15l-55.199,31.651
	c-0.188,0.108-0.371,0.221-0.552,0.34c-7.707,5.09-16.909,5.091-24.618,0c-0.184-0.122-0.371-0.237-0.563-0.346L215.527,289.054z
	 M153.15,417.809c0-11.588,7.204-23.329,16.757-27.31l65.984-27.493l37.587,37.663v86.655H153.15V417.809z M414.368,487.325H294.04
	V400.67l37.586-37.663l65.985,27.493c9.553,3.981,16.757,15.721,16.757,27.31V487.325z"/>
</svg>