<?xml version="1.0" encoding="iso-8859-1"?>
<!-- Uploaded to: SVG Repo, www.svgrepo.com, Generator: SVG Repo Mixer Tools -->
<svg version="1.1" id="Layer_1" xmlns="http://www.w3.org/2000/svg" xmlns:xlink="http://www.w3.org/1999/xlink" 
	 viewBox="0 0 504 504" xml:space="preserve">
<circle style="fill:#FFD05B;" cx="252" cy="252" r="252"/>
<rect x="179.508" y="105.673" transform="matrix(-0.7071 -0.7071 0.7071 -0.7071 306.4878 630.8948)" style="fill:#E6E9EE;" width="208.798" height="292.597"/>
<rect x="159.659" y="168.077" transform="matrix(0.7071 -0.7071 0.7071 0.7071 -95.0048 274.591)" style="fill:#54C0EB;" width="248.598" height="167.798"/>
<path style="fill:#324A5E;" d="M168.8,132.7H125c-1.2,0-2.2,1-2.2,2.2v19.5c0,1.2,1,2.2,2.2,2.2h43.8c1.2,0,2.2-1,2.2-2.2v-19.5
	C171.1,133.7,170,132.7,168.8,132.7z"/>
<path style="fill:#FFFFFF;" d="M423.5,381.5H86.8c-2.3,0-4.1-1.8-4.1-4.1v-222c0-2.3,1.8-4.1,4.1-4.1h336.8c2.3,0,4.1,1.8,4.1,4.1
	v221.9C427.7,379.6,425.8,381.5,423.5,381.5z"/>
<rect x="82.6" y="198.6" style="fill:#324A5E;" width="345" height="156.1"/>
<circle style="fill:#2B3B4E;" cx="255.2" cy="266.4" r="93.9"/>
<circle style="fill:#E6E9EE;" cx="255.2" cy="266.4" r="75.5"/>
<circle style="fill:#84DBFF;" cx="255.2" cy="266.4" r="60.5"/>
<circle style="fill:#54C0EB;" cx="255.2" cy="266.4" r="28.8"/>
<ellipse transform="matrix(0.7071 -0.7071 0.7071 0.7071 -105.7784 237.8092)" style="fill:#FFFFFF;" cx="234.172" cy="246.59" rx="12.2" ry="9.4"/>
<circle style="fill:#F1543F;" cx="146.1" cy="226.6" r="9.1"/>
<rect x="343.1" y="163.7" style="fill:#84DBFF;" width="49.1" height="22.7"/>
</svg>