<?xml version="1.0" encoding="iso-8859-1"?>
<!-- Uploaded to: SVG Repo, www.svgrepo.com, Generator: SVG Repo Mixer Tools -->
<svg version="1.1" id="Layer_1" xmlns="http://www.w3.org/2000/svg" xmlns:xlink="http://www.w3.org/1999/xlink" 
	 viewBox="0 0 512 512" xml:space="preserve">
<path style="fill:#FFD41D;" d="M155.313,155.285c-23.693,23.693-62.107,23.693-85.799,0c-23.693-23.693-23.693-62.107,0-85.799
	c23.693-23.693,62.107-23.693,85.799,0S179.005,131.593,155.313,155.285z"/>
<path style="fill:#FFFFFF;" d="M349.803,237.869v162.697h151.758V237.869H349.803z M486.648,368.366H364.716V252.747h121.932
	V368.366z"/>
<rect x="375.631" y="263.1" style="fill:#FF5957;" width="100.098" height="94.92"/>
<g>
	<path style="fill:#FEBBA0;" d="M213.678,319.203v20.335c0,6.794-4.085,12.921-10.356,15.535l-67.182,27.993
		c-14.194,5.915-23.438,21.988-23.438,37.365v81.021h286.103v-81.021c0-15.375-9.246-31.451-23.438-37.365l-67.182-27.993
		c-6.272-2.613-10.356-8.741-10.356-15.535v-20.335H213.678z"/>
	<path style="fill:#FEBBA0;" d="M349.701,199.352v-30.417c0-51.785-41.981-93.766-93.766-93.766
		c-51.786,0-93.766,41.981-93.766,93.766h-0.367v30.417c-12.914,0-23.383,10.469-23.383,23.383
		c0,12.914,10.469,23.383,23.383,23.383v17.457c1.125,14.722,8.304,27.829,19.175,35.008l56.525,32.314
		c11.35,7.496,25.151,7.496,36.501,0l56.356-32.314c10.87-7.179,18.217-20.286,19.343-35.008v-17.458
		c12.914,0,23.383-10.469,23.383-23.383C373.084,209.821,362.615,199.352,349.701,199.352z"/>
</g>
<path style="fill:#89CD37;" d="M375.364,383.066l-67.182-27.993c-5.195-2.164-8.881-6.743-9.996-12.113
	c-8.876,14.052-24.534,23.392-42.383,23.392c-17.901,0-33.599-9.395-42.461-23.515c-1.084,5.422-4.785,10.055-10.02,12.236
	l-67.182,27.993c-14.194,5.915-23.438,21.988-23.438,37.365v81.021h286.102v-81.021
	C398.802,405.054,389.557,388.978,375.364,383.066z"/>
<path style="fill:#703E41;" d="M161.802,171.86c0,0-45.169-50.601,3.759-81.51c31.869-20.131,63.187-1.426,63.187-1.426
	s47.932-72.357,115.771-33.211c70.563,40.717,5.182,113.222,5.182,113.222c-13.692-10.013-32.49-29.016-50.752-29.016
	c-35.334,0-25.334,35.84-68.2,35.84S185.862,151.75,161.802,171.86z"/>
<rect x="180.644" y="408.597" style="fill:#0084FF;" width="150.319" height="92.853"/>
<g>
	<circle style="fill:#074761;" cx="255.804" cy="455.019" r="19.486"/>
	<polygon style="fill:#074761;" points="289.264,385.319 222.341,385.319 216.436,408.593 295.17,408.593 	"/>
</g>
<rect x="10.491" y="256.138" style="fill:#0F8EE3;" width="90.818" height="52.194"/>
<path d="M25.72,122.824H10.576c-5.764,0-10.439-4.673-10.439-10.439s4.675-10.439,10.439-10.439H25.72
	c5.764,0,10.439,4.673,10.439,10.439S31.485,122.824,25.72,122.824z"/>
<path d="M112.414,36.131c-5.764,0-10.439-4.673-10.439-10.439V10.548c0-5.765,4.675-10.439,10.439-10.439
	c5.764,0,10.439,4.673,10.439,10.439v15.144C122.853,31.457,118.178,36.131,112.414,36.131z"/>
<path d="M51.112,61.523c-2.672,0-5.343-1.019-7.381-3.058L33.022,47.757c-4.076-4.076-4.076-10.686,0-14.763
	c4.078-4.075,10.686-4.076,14.764,0l10.708,10.708c4.076,4.076,4.076,10.686,0,14.763C56.454,60.504,53.782,61.523,51.112,61.523z"
	/>
<path d="M173.715,61.523c-2.672,0-5.343-1.019-7.381-3.058c-4.076-4.076-4.076-10.686,0-14.763l10.709-10.709
	c4.078-4.075,10.686-4.076,14.764,0c4.077,4.076,4.076,10.686,0,14.763l-10.709,10.708
	C179.057,60.504,176.386,61.523,173.715,61.523z"/>
<path d="M40.404,194.835c-2.672,0-5.343-1.019-7.381-3.058c-4.076-4.076-4.076-10.686,0-14.764l9.97-9.97
	c4.077-4.076,10.685-4.076,14.764,0c4.076,4.076,4.076,10.686,0,14.764l-9.97,9.97C45.746,193.816,43.076,194.835,40.404,194.835z"
	/>
<path d="M501.561,411.152h-75.878c-5.764,0-10.439-4.673-10.439-10.439s4.674-10.439,10.439-10.439h65.439V248.456h-92.319
	c-5.764,0-10.439-4.673-10.439-10.439s4.675-10.439,10.439-10.439h102.758c5.764,0,10.439,4.673,10.439,10.439v162.697
	C512,406.479,507.325,411.152,501.561,411.152z"/>
<path d="M474.121,367.073h-96.879c-5.764,0-10.439-4.673-10.439-10.439v-91.862c0-5.765,4.674-10.439,10.439-10.439h96.879
	c5.764,0,10.439,4.673,10.439,10.439v91.862C484.559,362.4,479.886,367.073,474.121,367.073z M387.682,346.196h76.001v-70.984
	h-76.001V346.196z"/>
<path d="M293.822,235.632c-6.433,0-11.669-5.234-11.669-11.667c0-6.434,5.235-11.669,11.669-11.669
	c6.433,0,11.667,5.234,11.667,11.669C305.488,230.398,300.255,235.632,293.822,235.632z"/>
<path d="M217.681,235.632c-6.433,0-11.667-5.234-11.667-11.667c0-6.434,5.234-11.669,11.667-11.669
	c6.433,0,11.669,5.234,11.669,11.669C229.35,230.398,224.115,235.632,217.681,235.632z"/>
<path d="M255.795,292.557c-11.38,0-20.64-9.259-20.64-20.64c0-5.765,4.675-10.439,10.439-10.439h20.402
	c5.764,0,10.439,4.673,10.439,10.439C276.434,283.298,267.176,292.557,255.795,292.557z"/>
<path d="M10.576,511.89h-0.137C4.675,511.89,0,507.217,0,501.452s4.675-10.439,10.439-10.439h0.137
	c5.764,0,10.439,4.673,10.439,10.439S16.34,511.89,10.576,511.89z"/>
<path d="M501.064,511.889h-0.137c-5.764,0-10.439-4.673-10.439-10.439s4.674-10.439,10.439-10.439h0.137
	c5.764,0,10.439,4.673,10.439,10.439S506.829,511.889,501.064,511.889z"/>
<path d="M101.308,245.7H10.49c-5.764,0-10.439,4.673-10.439,10.439v121.091c0,5.765,4.675,10.439,10.439,10.439h90.818
	c5.764,0,10.439-4.673,10.439-10.439V256.139C111.747,250.373,107.072,245.7,101.308,245.7z M20.929,266.578h69.94v31.316h-69.94
	C20.929,297.894,20.929,266.578,20.929,266.578z M20.929,366.791v-48.019h69.94v48.019H20.929z"/>
<path d="M359.146,438.259c-5.764,0-10.439-4.673-10.439-10.439v-0.137c0-5.765,4.674-10.439,10.439-10.439
	s10.439,4.673,10.439,10.439v0.137C369.585,433.586,364.911,438.259,359.146,438.259z"/>
<path d="M112.414,224.663c5.764,0,10.439-4.673,10.439-10.439v-14.101c0-5.765-4.675-10.439-10.439-10.439
	c-5.764,0-10.439,4.673-10.439,10.439v14.1C101.975,219.988,106.648,224.663,112.414,224.663z"/>
<path d="M467.157,491.013h-57.915v-70.582c0-20.348-12.28-39.675-29.861-47.001l-67.182-27.992c-2.388-0.995-3.932-3.31-3.932-5.899
	v-16.255l27.287-15.646c0.19-0.109,0.377-0.224,0.56-0.346c13.662-9.023,22.633-25.069,23.998-42.923
	c0.021-0.264,0.03-9.462,0.03-9.462c13.556-4.409,23.382-17.166,23.382-32.174c0-15.008-9.827-27.763-23.383-32.173v-17.814
	c8.273-10.212,32.168-43.155,26.801-77.1c-3.175-20.085-15.693-36.564-37.204-48.976c-31.348-18.089-63.922-17.331-94.199,2.194
	c-13.926,8.981-24.206,19.975-30.024,27.061c-10.89-4.237-30.836-9.189-52.601-0.889c-2.885-4.676-6.296-9.009-10.218-12.932
	c-13.431-13.431-31.288-20.827-50.282-20.827s-36.85,7.396-50.281,20.827s-20.828,31.287-20.828,50.281s7.397,36.85,20.828,50.281
	c13.77,13.769,32.012,20.793,50.328,20.793c12.802,0,25.635-3.446,37.007-10.405c0.689,0.948,1.329,1.798,1.897,2.527v14.979
	c-13.556,4.409-23.382,17.166-23.382,32.174c0,15.008,9.826,27.764,23.382,32.174c0,0,0.01,9.198,0.03,9.462
	c1.371,17.928,10.279,33.973,23.83,42.923c0.187,0.123,0.377,0.24,0.572,0.352l27.443,15.689v16.206
	c0,2.588-1.544,4.903-3.932,5.899l-67.182,27.993c-17.582,7.326-29.861,26.653-29.861,47v70.582H44.347
	c-5.764,0-10.439,4.673-10.439,10.439s4.675,10.439,10.439,10.439h422.81c5.764,0,10.439-4.673,10.439-10.439
	S472.921,491.013,467.157,491.013z M223.396,97.886c4.787,2.858,10.976,1.451,14.056-3.197c0.109-0.163,10.988-16.404,29.4-28.277
	c23.603-15.22,47.977-15.777,72.45-1.657c15.983,9.222,24.816,20.373,27.007,34.091c3.412,21.365-10.117,43.996-18.382,55.468
	c-0.277-0.222-0.554-0.447-0.835-0.672c-13.366-10.765-29.998-24.162-48.143-24.162c-21.805,0-30.979,11.371-38.351,20.507
	c-7.182,8.901-12.371,15.333-29.849,15.333c-16.555,0-25.776-3.834-33.912-7.217c-5.603-2.33-11.298-4.699-17.82-4.699
	c-4.488,0-9.369,1.122-14.876,4.152c-5.342-8.084-12.435-21.653-10.616-34.624c1.308-9.325,7.068-17.096,17.612-23.757
	C196.974,82.855,222.375,97.291,223.396,97.886z M76.896,147.904c-9.488-9.487-14.714-22.101-14.714-35.518
	s5.226-26.031,14.714-35.518c9.487-9.487,22.101-14.711,35.517-14.711c13.418,0,26.031,5.225,35.518,14.711
	c2.547,2.548,4.79,5.339,6.719,8.337c-12.549,9.426-19.88,21.116-21.802,34.827c-1.781,12.696,1.567,24.969,6.089,34.996
	C119.379,167.23,93.525,164.533,76.896,147.904z M186.473,289.7c-7.977-5.401-13.272-15.278-14.232-26.546v-17.037
	c0-5.765-4.674-10.439-10.439-10.439c-7.137,0-12.943-5.807-12.943-12.943c0-7.136,5.807-12.943,12.943-12.943
	c5.764,0,10.439-4.673,10.439-10.439V176.94c5.71-4.053,8.172-3.055,16.581,0.442c8.948,3.72,21.204,8.818,41.928,8.818
	c27.458,0,38.231-13.352,46.097-23.1c6.41-7.944,10.279-12.74,22.103-12.74c10.782,0,24.237,10.837,35.047,19.544
	c1.807,1.455,3.555,2.86,5.265,4.202v25.249c0,5.765,4.675,10.439,10.439,10.439c7.137,0,12.943,5.807,12.943,12.943
	s-5.806,12.941-12.943,12.941c-5.764,0-10.439,4.673-10.439,10.439v17.035c-0.948,11.038-6.437,21.155-14.406,26.551l-56.046,32.136
	c-0.19,0.11-0.377,0.224-0.56,0.346c-7.827,5.168-17.169,5.168-24.996,0c-0.187-0.123-0.377-0.241-0.572-0.352L186.473,289.7z
	 M287.41,340.172c-7.488,9.908-19.062,15.742-31.608,15.742c-12.607,0-24.221-5.881-31.706-15.866
	c0.003-0.17,0.019-0.337,0.019-0.508v-4.271l7.932,4.535c7.327,4.759,15.515,7.138,23.705,7.138c8.191,0,16.382-2.381,23.711-7.142
	l7.924-4.543v4.284C287.388,339.751,287.406,339.96,287.41,340.172z M170.204,408.593v82.42H123.14v-70.582
	c0-11.766,7.314-23.687,17.014-27.729l67.182-27.993c2.601-1.085,4.965-2.54,7.046-4.283c7.399,6.968,16.405,11.93,26.242,14.456
	h-18.284c-4.776,0-8.943,3.241-10.117,7.872l-3.908,15.401h-27.672C174.878,398.154,170.204,402.828,170.204,408.593z
	 M281.143,395.758l0.608,2.396h-51.897l0.608-2.396H281.143z M320.524,491.013H191.082v-71.981h129.442V491.013z M388.363,491.013
	h-18.777v-29.421c0-5.765-4.674-10.439-10.439-10.439c-5.764,0-10.439,4.673-10.439,10.439v29.421h-7.307v-82.42
	c0-5.765-4.675-10.439-10.439-10.439H303.29l-3.908-15.401c-1.174-4.63-5.342-7.872-10.117-7.872h-18.29
	c9.814-2.521,18.805-7.467,26.195-14.41c2.07,1.725,4.417,3.163,6.997,4.238l67.182,27.992c9.699,4.041,17.013,15.962,17.013,27.729
	v70.583H388.363z"/>
<path d="M255.803,425.097c-16.501,0-29.925,13.424-29.925,29.925c0,16.501,13.424,29.925,29.925,29.925s29.925-13.424,29.925-29.925
	C285.728,438.521,272.302,425.097,255.803,425.097z M255.803,464.07c-4.989,0-9.047-4.059-9.047-9.047s4.059-9.047,9.047-9.047
	c4.989,0,9.047,4.059,9.047,9.047S260.791,464.07,255.803,464.07z"/>
</svg>